<?xml version="1.0" standalone="no"?>
<!DOCTYPE svg PUBLIC "-//W3C//DTD SVG 20010904//EN"
 "http://www.w3.org/TR/2001/REC-SVG-20010904/DTD/svg10.dtd">
<svg version="1.0" xmlns="http://www.w3.org/2000/svg"
 width="700.000000pt" height="700.000000pt" viewBox="0 0 700.000000 700.000000"
 preserveAspectRatio="xMidYMid meet">
<metadata>
Created by potrace 1.11, written by Peter Selinger 2001-2013
</metadata>
<g transform="translate(0.000000,700.000000) scale(0.100000,-0.100000)"
fill="#000000" stroke="none">
<path d="M0 3500 l0 -3500 3500 0 3500 0 0 3500 0 3500 -3500 0 -3500 0 0
-3500z m5271 3037 c19 -13 39 -38 46 -57 15 -45 18 -1107 3 -1161 -6 -19 -20
-45 -32 -56 -20 -19 -374 -207 -1741 -927 l-287 -151 997 -5 c908 -5 1000 -6
1021 -22 59 -41 57 -13 60 -625 2 -475 0 -567 -12 -595 -8 -18 -247 -285 -531
-593 l-517 -560 489 -5 c452 -5 491 -6 517 -23 56 -37 56 -36 56 -657 0 -619
0 -615 -55 -658 l-28 -22 -603 0 -604 0 -38 34 -37 34 -3 601 c-2 498 0 606
12 633 7 18 246 285 530 593 l516 560 -1088 5 c-1181 5 -1111 2 -1146 61 -14
24 -16 90 -16 601 0 541 1 575 19 603 15 26 126 87 622 344 332 173 791 411
1020 530 l417 216 -1592 5 c-1731 5 -1615 1 -1650 61 -14 24 -16 90 -16 599 0
490 2 575 15 600 33 63 -102 59 1846 60 l1776 0 34 -23z"/>
<path d="M1787 6373 c-4 -3 -7 -217 -7 -475 l0 -468 1685 0 1685 0 0 475 0
475 -1678 0 c-923 0 -1682 -3 -1685 -7z"/>
<path d="M2962 3533 l3 -468 1093 -3 1092 -2 0 470 0 470 -1095 0 -1095 0 2
-467z"/>
<path d="M4160 1100 l0 -500 495 0 495 0 0 500 0 500 -495 0 -495 0 0 -500z"/>
</g>
</svg>
