<svg version="1.0" xmlns="http://www.w3.org/2000/svg" width="933.333" height="933.333" viewBox="0 0 700 700"><path d="M0 350v350h700V0H0v350zM527.1 46.3c1.9 1.3 3.9 3.8 4.6 5.7 1.5 4.5 1.8 110.7.3 116.1-.6 1.9-2 4.5-3.2 5.6-2 1.9-37.4 20.7-174.1 92.7L326 281.5l99.7.5c90.8.5 100 .6 102.1 2.2 5.9 4.1 5.7 1.3 6 62.5.2 47.5 0 56.7-1.2 59.5-.8 1.8-24.7 28.5-53.1 59.3l-51.7 56 48.9.5c45.2.5 49.1.6 51.7 2.3 5.6 3.7 5.6 3.6 5.6 65.7 0 61.9 0 61.5-5.5 65.8l-2.8 2.2H405l-3.8-3.4-3.7-3.4-.3-60.1c-.2-49.8 0-60.6 1.2-63.3.7-1.8 24.6-28.5 53-59.3l51.6-56-108.8-.5c-118.1-.5-111.1-.2-114.6-6.1-1.4-2.4-1.6-9-1.6-60.1 0-54.1.1-57.5 1.9-60.3 1.5-2.6 12.6-8.7 62.2-34.4 33.2-17.3 79.1-41.1 102-53l41.7-21.6-159.2-.5c-173.1-.5-161.5-.1-165-6.1-1.4-2.4-1.6-9-1.6-59.9 0-49 .2-57.5 1.5-60 3.3-6.3-10.2-5.9 184.6-6h177.6l3.4 2.3z"/><path d="M178.7 62.7c-.4.3-.7 21.7-.7 47.5V157h337V62H347.2c-92.3 0-168.2.3-168.5.7zm117.5 284l.3 46.8 109.3.3 109.2.2v-94H296l.2 46.7zM416 590v50h99V540h-99v50z"/></svg>