<svg data-name="Layer 1" xmlns="http://www.w3.org/2000/svg" viewBox="0 0 599.53 108.07"><path d="M141.67 7.24H90.39a2 2 0 0 0-2.07 2.07l-.07 92.36a1.94 1.94 0 0 0 2.06 2.07h19.44a2 2 0 0 0 2.07-2.07V65.14h28a2 2 0 0 0 2.07-2.06V46.53a2 2 0 0 0-2.07-2.07h-28V27.92h29.77a1.94 1.94 0 0 0 2.07-2.06V9.32a2 2 0 0 0-1.99-2.08zm78.83 29.01h-16.82a2 2 0 0 0-2.07 2.06l-.41 5.1c-4.69-5.24-10.89-8.83-18.47-8.84-18.61 0-32.41 15.83-32.42 35.54s13.75 35.58 32.36 35.6a24.79 24.79 0 0 0 18.48-8.26l.41 4.27a2 2 0 0 0 2.07 2.07h16.82a2 2 0 0 0 2.07-2.07V38.31a2 2 0 0 0-2.02-2.06zm-34.92 48.63c-7.72 0-13.36-6.49-13.36-14.9s5.67-14.6 13.39-14.6 13.5 6.77 13.5 14.63-5.67 14.88-13.53 14.87zM274 34.64a24.29 24.29 0 0 0-17.1 7.29V5.26a2 2 0 0 0-2.07-2.07h-18.59a1.94 1.94 0 0 0-2.06 2.06l-.08 96.5a2 2 0 0 0 2.06 2.07H253a2 2 0 0 0 2.07-2.06l.42-4.28a24.76 24.76 0 0 0 18.46 8.29c18.61 0 32.41-15.83 32.43-35.54S292.6 34.65 274 34.64zM271.05 85c-7.85 0-13.5-6.9-13.49-14.9 0-7.85 5.66-14.6 13.52-14.6s13.37 6.22 13.36 14.62S278.77 85 271.05 85zm112.4-48.62h-16.82a2 2 0 0 0-2.07 2.06l-.42 5.1c-4.68-5.24-10.88-8.83-18.46-8.83-18.61 0-32.41 15.82-32.43 35.54s13.76 35.57 32.37 35.59a24.83 24.83 0 0 0 18.48-8.26l.41 4.28a2 2 0 0 0 2.06 2.07h16.82a2 2 0 0 0 2.07-2.07l.05-63.41a2 2 0 0 0-2.06-2.07zM348.53 85c-7.72 0-13.37-6.49-13.36-14.9s5.66-14.61 13.38-14.6 13.51 6.76 13.5 14.62S356.39 85 348.53 85zM445 80c-1-1-1.93-.83-3 0a17.23 17.23 0 0 1-11.58 4.54c-7.86 0-13.37-6.21-13.36-14.21S422.58 56 430.44 56c3.58 0 7.3 1.24 11.16 4.55 1.1 1 2.07 1.25 3 .28l11.32-11a2 2 0 0 0 .14-2.89 34.88 34.88 0 0 0-26.18-12c-19.44 0-34.76 15.55-34.77 35.4s15.27 35.44 34.71 35.46a35.27 35.27 0 0 0 26.61-12 2 2 0 0 0-.13-2.9zm86.09-43.5h-18.61a2 2 0 0 0-2.07 2.06v34.88c0 5.24-3.45 11-11.45 11-4.27 0-10.89-2.22-10.88-13V38.5a2 2 0 0 0-2.08-2.03h-18.61a2 2 0 0 0-2.07 2.07v37.77c0 18.06 10.87 29.51 25.89 29.52 7.86 0 14.62-4.54 19.17-11.15l.55 7.3A2 2 0 0 0 513 104h18a2 2 0 0 0 2.1-2l.06-63.41a2 2 0 0 0-2.07-2.09zM566 56.52c0-1.24.83-3.58 4.83-3.58 3.72 0 6.34 1.38 11.58 4.28 1.24.69 2.2 1.24 3 .14l6.9-9.23a2.12 2.12 0 0 0 .14-2.89C586.78 38.62 578 35 568.31 35 556.18 35 544 42.58 544 56.78c0 22.74 30 19.32 30 26.9 0 3.31-3.72 3.31-5.93 3.31-3.58 0-8.68-1.11-15.43-5.12-1.24-.69-2.35-1-3.17.14l-6.77 9.64a2.51 2.51 0 0 0 0 2.9c4.82 5.65 14.33 11.31 26 11.32 12.82 0 27.3-7.7 27.31-21.76.13-25.22-30.01-19.04-30.01-27.59zM63.45 62.37V45.86a2 2 0 0 0-2.06-2.07H30.72l31.66-16.6a2 2 0 0 0 1.07-2.06V8.55a2 2 0 0 0-2.06-2.07H6.74a2 2 0 0 0-2.07 2.07v16.58a2 2 0 0 0 2.07 2.07h49.32L24.4 43.79a2 2 0 0 0-1.08 2.07v16.49a1.94 1.94 0 0 0 2.06 2.07h33.26L42.8 81.52a2.31 2.31 0 0 0-.82 2v17.35A2 2 0 0 0 44 103h17.39a1.94 1.94 0 0 0 2.06-2.06V83.59a1.94 1.94 0 0 0-2.06-2.07H46.8l15.83-17.1a2.31 2.31 0 0 0 .82-2.05zM7.6 24.27V9.41h52.92v14.86H7.6zm52.92 60.18v15.61H44.91V84.45h15.61zm-1.88-23H26.25V46.72h34.27v14.77z" fill="#fff"/></svg>