<svg data-name="Layer 1" xmlns="http://www.w3.org/2000/svg" viewBox="0 0 500 500"><path d="M400 250c0-18.54-14.56-34.34-39.62-45.72 9.67-25.76 8.79-47.24-4.31-60.34s-34.58-14-60.35-4.32C284.35 114.56 268.54 100 250 100s-34.35 14.56-45.72 39.62c-25.76-9.67-47.24-8.79-60.34 4.32s-14 34.58-4.32 60.34C114.56 215.65 100 231.46 100 250s14.56 34.35 39.62 45.72c-9.67 25.76-8.79 47.24 4.32 60.35 7.31 7.31 17.22 10.83 29 10.83 9.35 0 19.91-2.26 31.29-6.53C215.65 385.43 231.46 400 250 400s34.35-14.57 45.73-39.63c11.38 4.27 21.94 6.53 31.3 6.53 11.81 0 21.72-3.52 29-10.83 13.1-13.11 14-34.59 4.31-60.35C385.44 284.35 400 268.54 400 250zm-73.34-101.08c7.35 0 13.49 2 17.94 6.48 8.89 8.89 8.09 24.5.83 43a231.81 231.81 0 0 0-35.25-8.61 231.67 231.67 0 0 0-8.61-35.24c9.24-3.55 17.77-5.63 25.09-5.63zM250 298.65A48.65 48.65 0 1 1 298.65 250 48.71 48.71 0 0 1 250 298.65zM276.51 186q-6.37-5.6-12.7-10.65a233.29 233.29 0 0 1 22.88-13.89 230.69 230.69 0 0 1 6.36 26q-8.05-.91-16.54-1.46zm-53 0q-8.49.56-16.54 1.46a233.25 233.25 0 0 1 6.36-26 233.66 233.66 0 0 1 22.9 13.9q-6.35 5.03-12.74 10.64zM186 223.49q-5.61 6.39-10.66 12.72a233.66 233.66 0 0 1-13.9-22.9 233.25 233.25 0 0 1 26-6.36q-.89 8.05-1.44 16.54zm0 53q.56 8.49 1.46 16.54a233.25 233.25 0 0 1-26-6.36 233.66 233.66 0 0 1 13.9-22.9q5.03 6.35 10.64 12.74zM223.51 314q6.39 5.61 12.71 10.66a234.85 234.85 0 0 1-22.9 13.9 231 231 0 0 1-6.37-26q8.05.89 16.56 1.44zm53 0q8.5-.56 16.56-1.46a232.52 232.52 0 0 1-6.36 26 228.69 228.69 0 0 1-22.9-13.9q6.3-5.02 12.68-10.64zM314 276.52q5.61-6.4 10.66-12.73a231.73 231.73 0 0 1 13.9 22.9 233.25 233.25 0 0 1-26 6.36c.59-5.36 1.08-10.88 1.44-16.53zm0-53q-.56-8.49-1.46-16.54a233.25 233.25 0 0 1 26 6.36 231.73 231.73 0 0 1-13.9 22.9q-5.02-6.36-10.64-12.75zm-64-107.3c12.57 0 23 11.6 31 29.84a232.21 232.21 0 0 0-31 18.83 232.21 232.21 0 0 0-31-18.83c8-18.24 18.43-29.84 31-29.84zm-94.6 39.18c8.89-8.89 24.5-8.09 43-.83a233 233 0 0 0-8.61 35.25 231.81 231.81 0 0 0-35.25 8.61c-7.23-18.53-8.03-34.14.86-43.03zM116.22 250c0-12.57 11.6-23 29.84-31a232.21 232.21 0 0 0 18.83 31 232.21 232.21 0 0 0-18.83 31c-18.24-8-29.84-18.43-29.84-31zm39.18 94.6c-8.89-8.89-8.08-24.5-.83-43a231.81 231.81 0 0 0 35.25 8.61 233.14 233.14 0 0 0 8.61 35.26c-18.53 7.22-34.14 8.02-43.03-.87zm94.6 39.18c-12.57 0-23.05-11.61-31-29.85a232.29 232.29 0 0 0 31-18.87 232.24 232.24 0 0 0 31 18.86c-7.95 18.25-18.43 29.86-31 29.86zm94.6-39.18c-8.88 8.89-24.5 8.08-43 .83a231.81 231.81 0 0 0 8.61-35.25 231.81 231.81 0 0 0 35.25-8.61c7.23 18.53 8.03 34.14-.86 43.03zm9.34-63.6a232.21 232.21 0 0 0-18.83-31A232.34 232.34 0 0 0 354 219c18.23 8 29.83 18.45 29.83 31s-11.65 23-29.89 31z" fill="#fff"/></svg>