<svg xmlns="http://www.w3.org/2000/svg" viewBox="0 0 300 300"><path d="M150 0C67.3 0 0 67.3 0 150s67.3 150 150 150 150-67.3 150-150S232.7 0 150 0zm0 16.2c67 0 122.7 49.6 132.3 114-22-17.6-66.7-45.1-132.3-45.1s-110.3 27.4-132.3 45C27.3 65.8 83 16.2 150 16.2zM101.4 150c0-26.9 21.8-48.7 48.6-48.7s48.6 21.8 48.7 48.6c0 26.9-21.8 48.7-48.7 48.7-26.9 0-48.6-21.7-48.6-48.6zm0 42.8c-42.7-10.5-70.7-32.6-81.8-42.8 11.1-10.2 38.9-32.3 81.8-42.8-21.7 24.4-21.7 61.2 0 85.6zM214.9 150c0-15.8-5.8-31-16.2-42.8 42.7 10.6 70.7 32.6 81.8 42.8-11.1 10.2-38.9 32.3-81.8 42.8 10.4-11.8 16.2-27 16.2-42.8zM150 283.8c-67 0-122.7-49.6-132.3-114 22 17.6 66.7 45.1 132.3 45.1s110.3-27.4 132.3-45.1c-9.6 64.4-65.3 114-132.3 114z" fill="#939393"/></svg>