<svg data-name="Layer 1" xmlns="http://www.w3.org/2000/svg" viewBox="0 0 500 500"><path d="M375.33 225.33a24.69 24.69 0 0 0-23.27 16.56H314.3a64.46 64.46 0 0 0-13.12-31.6L328 183.51a24.66 24.66 0 1 0-11.47-11.46l-26.78 26.77a64.46 64.46 0 0 0-31.6-13.12V148a24.67 24.67 0 1 0-16.22 0v37.7a64.46 64.46 0 0 0-31.6 13.12l-26.78-26.77a24.94 24.94 0 1 0-11.46 11.46l26.77 26.78a64.46 64.46 0 0 0-13.12 31.6h-37.8a24.67 24.67 0 1 0 0 16.22h37.76a64.38 64.38 0 0 0 13.13 31.6l-26.72 26.72a24.65 24.65 0 1 0 6.71 39.64 24.64 24.64 0 0 0 4.69-28.07l26.78-26.78a64.5 64.5 0 0 0 31.6 13.12v37.76a24.67 24.67 0 1 0 16.22 0v-37.8a64.5 64.5 0 0 0 31.6-13.12L316.49 328a24.45 24.45 0 1 0 11.4-11.54l-26.71-26.71a64.46 64.46 0 0 0 13.12-31.6h37.76a24.66 24.66 0 1 0 23.27-32.78zM250 298.65A48.65 48.65 0 1 1 298.65 250 48.71 48.71 0 0 1 250 298.65zm82.64-143.25a8.46 8.46 0 1 1 0 12 8.4 8.4 0 0 1 0-12zM250 116.22a8.46 8.46 0 1 1-8.45 8.45 8.46 8.46 0 0 1 8.45-8.45zm-94.6 51.14a8.46 8.46 0 1 1 12 0 8.46 8.46 0 0 1-12 0zm-30.73 91.1a8.46 8.46 0 1 1 8.46-8.46 8.47 8.47 0 0 1-8.46 8.46zm42.69 86.14a8.45 8.45 0 1 1 0-12 8.46 8.46 0 0 1 0 12zM250 383.78a8.46 8.46 0 1 1 8.45-8.45 8.46 8.46 0 0 1-8.45 8.45zm94.6-51.14a8.47 8.47 0 1 1-6-2.47 8.46 8.46 0 0 1 6 2.47zm30.73-74.18a8.46 8.46 0 1 1 8.45-8.46 8.48 8.48 0 0 1-8.45 8.46z" fill="#fff"/></svg>