<svg version="1.1" id="Layer_1" xmlns="http://www.w3.org/2000/svg" x="0" y="0" viewBox="0 0 155.1 29.8" xml:space="preserve"><style>.st0{fill:#fff}</style><path class="st0" d="M16.2 9.9l.6-.3.1-.1.5.5-.3.2v1.7l.7.4.7.4.7-.4.7-.4v-1.7l-.2-.2.5-.5.1.1.6.3.6-.3.6-.3V7.9l-.6-.3-.6-.3-.6.3-.6.3v1.3l.3.1-.5.5-.2-.1-.7-.4-.7.4-.2.1-.5-.5.2-.1V7.9l-.6-.3-.6-.3-.6.3-.6.3v1.3l.6.3.6.4zm3.3-4.5l.2.1v1.3l-.6.3-.6.3-.5-.2-.6-.3V5.5l.2-.1-.9-.9h-.1l-.4.2-.4-.2-.4-.2v-1l.4-.3.4-.2.4.2.4.3v1l-.1.1.9.9.2-.1.6-.3.6.3.1.1.9-.9-.1-.1v-1l.4-.2.4-.2.4.2.4.2v1l-.4.2-.4.2-.4-.2h-.1l-.9.9zm-5.3 1.5l.4-.2v-1l-.4-.2-.4-.2-.4.2-.4.2v1l.4.3.4.2.4-.3zm-2.5-2.7l.3-.1v-.6l-.3-.1-.2-.1-.3.1-.2.1v.6l.2.1.3.1.2-.1zm1.6-2.5l.2.1.3.2.3-.1.2-.1v-.6l-.2-.2-.3-.1-.2.1-.2.1-.1.6zm9.2 4.5v.5l.4.2.4.2.4-.2.4-.2v-1l-.4-.2-.4-.2-.4.2-.4.2v.5zm2.7-2.7v.6l.2.1.2.1.3-.1.2-.1v-.6l-.2-.1-.3-.1-.2.1-.2.1zm-1.4-1.8v-.5l-.3-.2-.2-.1-.3.1-.2.1v.6l.2.1.3.2.2-.1.3-.2zm-5 .4l.2-.2v-.5l-.3-.1-.2-.1-.2.1-.3.1V2l.3.1.2.1.3-.1zm-2.6 17.1l.6.3.1.1.5-.5-.3-.1v-1.7l.7-.4.7-.4.7.4.7.4V19l-.3.2.5.5.1-.1.6-.3.6.3.6.3v1.3l-.6.3-.6.3-.6-.3-.6-.3v-1.4l.2-.1-.5-.5-.2.1-.7.4-.7-.4-.2-.1-.5.5.2.1v1.3l-.6.3-.6.3-.6-.3-.4-.2v-1.3l.6-.3.6-.4zm3.3 4.5l.2-.1v-1.3l-.6-.3-.6-.3-.5.2-.6.3v1.3l.2.1-.9.9h-.1l-.4-.2-.4.2-.4.2v1l.4.2.4.2.4-.3.4-.2v-1l-.1-.1.9-.9.2.1.6.3.6-.3.1-.1.9.9-.1.1v1l.4.2.4.2.4-.2.4-.2v-1l-.4-.2-.4-.2-.4.2h-.1l-.9-.7zm-5.3-1.5l.4.2v1l-.4.2-.4.2-.4-.2-.4-.2v-1l.4-.2.4-.2.4.2zm-2.5 2.7l.3.1v.6l-.3.1-.2.1-.3-.1-.2-.1V25l.2-.1.3-.1.2.1zm1.6 2.5l.2-.1.2-.1.3.1.2.1v.6l-.2.1-.3.1-.2-.1-.2-.1v-.6zm9.2-4.5v-.5l.4-.2.4-.2.4.2.4.2v1l-.4.2-.4.2-.4-.2-.4-.2v-.5zm2.7 2.7V25l.2-.1.2-.1.3.1.2.1v.6l-.2.1-.3.1-.2-.1-.2-.1zm-1.4 1.8v.6l-.2.1-.2.1-.4-.1-.2-.1v-.6l.2-.1.3-.1.2.1.3.1zm-5-.4l.3.1v.6l-.3.1-.3.2-.2-.1-.3-.2v-.6l.3-.1.2-.1.3.1zm4.4-14.8l.3.6.1.1-.5.5-.1-.3h-1.7l-.4.7-.4.7.4.7.4.7H23l.2-.3.5.5-.1.1-.3.6.3.6.3.6h1.3l.3-.6.3-.6-.3-.6-.3-.6h-1.4l-.1.4-.5-.5.1-.2.4-.7-.4-.7-.1-.2.5-.5.1.2h1.3l.3-.6.3-.6-.3-.6-.2-.6h-1.3l-.3.6-.4.6zm4.5 3.3l-.1.2h-1.3l-.3-.6-.3-.6.3-.6.3-.6h1.3l.1.2.9-.9v-.1l-.2-.4.2-.4.2-.4h1l.2.4.2.4-.2.5-.2.4h-1l-.1-.1-.9.9.1.1.3.6-.3.6-.1.1.9.9.1-.1h1l.2.4.2.4-.2.5-.2.4h-1l-.2-.4-.2-.4.2-.4v-.1l-.9-.9zm-1.5-5.3l.2.4h1l.2-.4.2-.4-.2-.4-.2-.4h-1l-.2.4-.2.4.2.4zm2.7-2.5l.1.2h.6l.1-.3.1-.2-.1-.2-.1-.2H29l-.1.3-.1.2.1.2zm2.5 1.6l-.1.2-.1.3.1.2.1.3h.6l.1-.3.1-.2-.1-.3-.1-.2h-.6zm-4.5 9.2h-.5l-.2.4-.2.4.2.4.2.4h1l.2-.4.2-.4-.2-.4-.2-.4h-.5zm2.7 2.7H29l-.1.2-.1.3.1.2.1.3h.6l.1-.3.1-.2-.1-.3-.1-.2zm1.8-1.4h.6l.1-.3.1-.2-.1-.3-.1-.2h-.6l-.1.2-.1.2.1.2.1.4zm-.4-5l.1.2h.6l.1-.2.1-.3-.1-.2-.1-.3h-.6l-.1.3-.1.2.1.3zm-17.1-2.6l-.3.6-.1.1.5.5.2-.3h1.7l.4.7.4.7-.4.7-.5.8h-1.7l-.1-.3-.5.5.1.1.3.6-.3.6-.3.6h-1.4l-.3-.6-.3-.6.3-.6.3-.6h1.3l.1.2.5-.5-.1-.2-.4-.7.4-.7.1-.2-.5-.5-.1.2h-1.3l-.3-.6-.3-.6.3-.6.3-.6h1.3l.3.6c.1.1.4.7.4.7zm-4.5 3.3l.1.2h1.3l.3-.6.3-.6-.2-.5-.3-.6H9.6l-.1.2-.9-.9v-.1l.2-.4-.2-.4-.2-.4h-1l-.4.4-.2.4.2.4.3.4h1l.1-.1.9.9v.1l-.3.6.3.6.1.1-.9.9-.1-.1h-1l-.2.4-.2.4.2.4.2.4h1l.2-.4.2-.4-.2-.4v-.1l.8-.8zm1.5-5.3l-.2.4h-1l-.2-.4-.3-.4.2-.4.3-.4h1l.2.4.2.4-.2.4zM8.2 7.7l-.1.2h-.6l-.1-.2-.2-.3.1-.2.2-.2h.6l.1.3.1.2-.1.2zM5.7 9.3l.1.2.2.3-.1.2-.1.3h-.7l-.1-.2-.1-.3.1-.2.1-.2.6-.1zm4.5 9.2h.5l.2.4.2.4-.2.4-.2.4h-1l-.2-.4-.2-.4.2-.4.2-.4h.5zm-2.7 2.7h.6l.1.2.1.3-.1.2-.1.3h-.6l-.1-.3-.1-.2.1-.3.1-.2zm-1.8-1.4h-.6l-.1-.3-.1-.2.1-.3.1-.3h.6l.1.3.2.2-.1.2-.2.4zm.4-5l-.2.2h-.5l-.1-.2-.1-.3.1-.2.1-.3H6l.1.2.1.2-.1.4zm48.4 7.6h-4.7c-.2 0-.4-.1-.5-.3l-2.4-3.6-2.4 3.6c-.1.2-.3.3-.5.3h-4.7c-.4 0-.5-.3-.3-.5l5-7.2-4.7-6.8c-.2-.3-.1-.6.3-.6h4.7c.2 0 .4.1.6.3l2.1 3.2 2-3.1c.1-.2.3-.3.5-.3h4.7c.4 0 .5.3.3.6l-4.7 6.7 4.9 7.2c.3.2.2.5-.2.5z"/><path class="st0" d="M67.3 16.6h-8.7c.4 1.4 1.7 2 3.5 2 1 0 1.9-.3 2.7-.8.3-.2.5-.2.7.1l1.8 1.8c.2.2.2.4-.1.7-1.5 1.5-3.5 2.3-5.5 2.3-4.2.2-7.8-3.1-8.1-7.3v-.5c-.1-4.2 3.3-7.7 7.5-7.8h.2c4.4 0 7.2 3.4 7.2 7.6 0 1.2-.2 1.9-1.2 1.9zm-8.7-3.2H64c-.2-1.3-1.3-2.2-2.6-2.1-1.4-.1-2.6.8-2.8 2.1zM70.3 0h4.1c.2 0 .4.2.5.4V22c0 .2-.2.4-.4.5h-4.1c-.2 0-.4-.2-.5-.4V.5c0-.3.1-.5.4-.5zm22 7.8v14.1c0 .2-.2.4-.4.5h-3.5c-.3 0-.5-.2-.5-.5l-.2-1.2c-1 1.2-2.5 1.9-4.1 1.8-4.2 0-7.3-3.4-7.3-7.7S79.4 7 83.6 7c1.6 0 3.1.7 4.1 2l.2-1.3c0-.2.2-.5.4-.5h3.5c.2.1.4.3.5.6zm-5.1 7c0-1.7-1.3-3-3-3s-3 1.3-3 3 1.3 3 3 3 3-1.3 3-3zm16.9 2.1c.2-.2.5-.2.7 0l2.5 2.4c.2.2.2.5 0 .6-1.5 1.7-3.7 2.7-5.9 2.7-4.3 0-7.7-3.4-7.7-7.7v-.1c0-4.2 3.4-7.7 7.6-7.7h.1c2.2 0 4.4 1 5.8 2.7.2.2.2.4 0 .6l-2.5 2.4c-.2.2-.4.1-.7-.1-.7-.6-1.6-1-2.5-1-1.6 0-3 1.2-3 2.8v.2c-.1 1.7 1.2 3.1 2.9 3.1h.1c1 .1 1.9-.3 2.6-.9zm3.7-2c0-4.4 3.5-7.9 7.8-7.9s7.9 3.5 7.9 7.8c0 4.4-3.5 7.9-7.8 7.9h-.1c-4.3 0-7.8-3.5-7.8-7.8zm10.8 0c0-1.7-1.3-3-3-3s-3 1.3-3 3 1.3 3 3 3 3-1.4 3-3zm17.5-6.3l-1.1 2.9c-.1.4-.4.5-.8.4-.4-.2-.8-.2-1.3-.3-1.6-.1-2.9 1.2-3 2.8v7.5c0 .2-.2.4-.4.5h-4.1c-.2 0-.4-.2-.5-.4V7.8c0-.2.2-.4.4-.5h4.1c.2 0 .5.2.5.4l.1 1.8c.6-1.6 2.2-2.6 3.9-2.7.8 0 1.5.3 2.1.8.2.4.2.7.1 1zm13.3 8h-8.6c.4 1.4 1.7 2 3.5 2 1 0 1.9-.3 2.7-.8.3-.2.5-.2.7.1l1.8 1.8c.2.2.2.4-.1.7-1.5 1.5-3.5 2.3-5.6 2.3-4.2.2-7.9-3.1-8.1-7.3v-.5c-.1-4.2 3.3-7.7 7.5-7.8h.2c4.4 0 7.2 3.4 7.2 7.6 0 1.2-.2 1.9-1.2 1.9zm-8.8-3.2h5.4c-.2-1.3-1.3-2.2-2.6-2.1-1.3-.1-2.5.8-2.8 2.1z"/></svg>