<svg xmlns="http://www.w3.org/2000/svg" viewBox="0 0 300 300"><path d="M300 150c0-18.5-14.6-34.3-39.6-45.7 9.7-25.8 8.8-47.2-4.3-60.3s-34.6-14-60.4-4.3C184.4 14.6 168.5 0 150 0s-34.4 14.6-45.7 39.6c-25.8-9.7-47.2-8.8-60.3 4.3s-14 34.6-4.3 60.3C14.6 115.6 0 131.5 0 150s14.6 34.4 39.6 45.7c-9.7 25.8-8.8 47.2 4.3 60.4 7.3 7.3 17.2 10.8 29 10.8 9.4 0 19.9-2.3 31.3-6.5 11.4 25.1 27.2 39.6 45.8 39.6s34.4-14.6 45.7-39.6c11.4 4.3 21.9 6.5 31.3 6.5 11.8 0 21.7-3.5 29-10.8 13.1-13.1 14-34.6 4.3-60.4 25.1-11.3 39.7-27.2 39.7-45.7zM226.7 48.9c7.4 0 13.5 2 17.9 6.5 8.9 8.9 8.1 24.5.8 43-11.5-3.8-23.3-6.7-35.3-8.6-1.9-12-4.8-23.7-8.6-35.2 9.3-3.6 17.8-5.7 25.2-5.7zM150 198.6c-26.9 0-48.7-21.8-48.7-48.6s21.8-48.7 48.6-48.7 48.7 21.8 48.7 48.6c0 27-21.7 48.7-48.6 48.7zM176.5 86c-4.2-3.7-8.5-7.3-12.7-10.6 7.4-5.1 15-9.7 22.9-13.9 2.6 8.5 4.7 17.2 6.4 26-5.4-.6-10.9-1.1-16.6-1.5zm-53 0c-5.7.4-11.2.9-16.5 1.5 1.6-8.8 3.7-17.5 6.4-26 7.9 4.2 15.5 8.8 22.9 13.9-4.3 3.3-8.5 6.9-12.8 10.6zM86 123.5c-3.7 4.3-7.3 8.5-10.7 12.7-5.1-7.4-9.7-15-13.9-22.9 8.5-2.6 17.2-4.7 26-6.4-.6 5.4-1 10.9-1.4 16.6zm0 53c.4 5.7.9 11.2 1.5 16.5-8.8-1.6-17.5-3.7-26-6.4 4.2-7.9 8.8-15.5 13.9-22.9 3.3 4.3 6.9 8.6 10.6 12.8zm37.5 37.5c4.3 3.7 8.5 7.3 12.7 10.7-7.4 5.1-15 9.7-22.9 13.9-2.6-8.5-4.8-17.2-6.4-26 5.4.6 10.9 1 16.6 1.4zm53 0c5.7-.4 11.2-.9 16.6-1.5-1.6 8.8-3.7 17.5-6.4 26-7.9-4.2-15.5-8.8-22.9-13.9 4.2-3.3 8.4-6.9 12.7-10.6zm37.5-37.5c3.7-4.3 7.3-8.5 10.7-12.7 5.1 7.4 9.7 15 13.9 22.9-8.5 2.6-17.2 4.7-26 6.4.5-5.4 1-10.9 1.4-16.6zm0-53c-.4-5.7-.9-11.2-1.5-16.5 8.8 1.6 17.5 3.7 26 6.4-4.2 7.9-8.8 15.5-13.9 22.9-3.3-4.3-6.9-8.5-10.6-12.8zM150 16.2c12.6 0 23 11.6 31 29.8a243.6 243.6 0 0 0-31 18.8c-9.8-7.1-20.2-13.4-31-18.8 8-18.2 18.4-29.8 31-29.8zM55.4 55.4c8.9-8.9 24.5-8.1 43-.8-3.8 11.5-6.7 23.3-8.6 35.3-12 1.9-23.7 4.8-35.3 8.6-7.2-18.6-8-34.2.9-43.1zM16.2 150c0-12.6 11.6-23 29.8-31a243.6 243.6 0 0 0 18.8 31c-7.1 9.8-13.4 20.2-18.8 31-18.2-8-29.8-18.4-29.8-31zm39.2 94.6c-8.9-8.9-8.1-24.5-.8-43 11.5 3.8 23.3 6.7 35.3 8.6 1.9 12 4.8 23.7 8.6 35.3-18.6 7.2-34.2 8-43.1-.9zm94.6 39.2c-12.6 0-23.1-11.6-31-29.9 10.8-5.5 21.2-11.8 31-18.9 9.8 7.1 20.2 13.4 31 18.9-8 18.3-18.4 29.9-31 29.9zm94.6-39.2c-8.9 8.9-24.5 8.1-43 .8 3.8-11.5 6.7-23.3 8.6-35.3 12-1.9 23.7-4.8 35.3-8.6 7.2 18.6 8 34.2-.9 43.1zm9.3-63.6a243.6 243.6 0 0 0-18.8-31c7.1-9.8 13.4-20.2 18.9-31 18.2 8 29.8 18.4 29.8 31 0 12.5-11.6 23-29.9 31z" fill="#939393"/></svg>