<svg xmlns="http://www.w3.org/2000/svg" viewBox="0 0 299.9 300"><path d="M298.7 154.2c.1-.2.2-.3.3-.5.1-.1.1-.3.2-.4.1-.2.1-.3.2-.5s.1-.4.2-.6l.1-.5c0-.2.1-.3.1-.5s.1-.4.1-.6V149c0-.2 0-.4-.1-.6 0-.2-.1-.3-.1-.5l-.1-.5c-.1-.2-.1-.4-.2-.6s-.1-.3-.2-.5c-.1-.1-.1-.3-.2-.4-.1-.2-.2-.3-.3-.5s-.2-.3-.3-.4l-.3-.4c-.1-.1-.1-.2-.2-.2l-18-20.5 8.8-25.8c0-.1 0-.2.1-.3s.1-.3.1-.5.1-.4.1-.5c0-.2.1-.4.1-.5v-1.6l-.1-.5c0-.2-.1-.4-.1-.5s-.1-.4-.1-.6l-.2-.5c0-.1 0-.2-.1-.3 0-.1-.1-.2-.1-.2-.1-.2-.1-.3-.2-.5s-.2-.3-.3-.5c-.1-.1-.2-.3-.3-.4s-.2-.3-.3-.4l-.4-.4-.4-.4-.4-.3c-.1-.1-.3-.2-.5-.4-.1-.1-.3-.2-.4-.3-.1-.1-.3-.2-.4-.3s-.2-.1-.3-.2L260 75.9l-1.8-27.2v-.3c0-.1 0-.4-.1-.5 0-.2-.1-.3-.1-.5s-.1-.4-.2-.6c0-.2-.1-.3-.1-.4 0-.1-.1-.3-.2-.4s-.2-.4-.3-.6l-.2-.4-.2-.3c-.1-.2-.3-.4-.5-.6l-.3-.3c-.1-.1-.1-.1-.1-.2l-.1-.1c-.2-.2-.4-.4-.6-.5-.1-.1-.2-.2-.4-.3v-.1l-.3-.2c-.2-.1-.4-.2-.6-.4l-.4-.2-.4-.2c-.2-.1-.4-.1-.6-.2l-.5-.1-.4-.1-.6-.1-.3-.1-27.2-1.8-12.1-24.5c0-.1-.1-.2-.2-.3s-.1-.3-.2-.4-.2-.3-.3-.4c-.1-.2-.2-.3-.4-.5l-.3-.3c-.1-.1-.2-.3-.4-.4-.1-.1-.3-.3-.5-.4-.1-.1-.2-.2-.4-.3-.1-.1-.3-.2-.5-.3-.2-.1-.3-.2-.5-.3l-.5-.2c-.1 0-.1-.1-.2-.1s-.2-.1-.3-.1l-.5-.2-.6-.2-.5-.1h-2l-.5.1-.6.1-.5.1c-.1 0-.2 0-.3.1L175.8 20 155.3 2l-.2-.2c-.1-.1-.3-.2-.4-.3-.1-.1-.3-.2-.4-.3l-.5-.3-.4-.2c-.1-.1-.3-.1-.5-.2l-.6-.2-.5-.1c-.2 0-.3-.1-.5-.1s-.4-.1-.6-.1h-1.6c-.2 0-.4 0-.6.1l-.5.1-.4.1c-.2.1-.4.1-.6.2-.2.1-.3.1-.5.2l-.4.2-.5.3-.4.3c-.1.1-.3.2-.4.3-.1.1-.2.1-.2.2l-20.5 18-25.8-8.8c-.1 0-.2 0-.3-.1l-.5-.1-.6-.1-.6-.1h-2l-.6.1-.6.2-.4.1c-.1 0-.2 0-.3.1-.1 0-.1.1-.2.1-.2.1-.3.1-.5.2l-.4.3c-.2.1-.3.2-.5.3s-.3.2-.4.3c-.1.1-.3.2-.4.4-.1.1-.3.2-.4.4l-.3.4c-.1.1-.2.3-.3.4l-.3.4-.2.5c-.1.1-.1.2-.2.3l-12 24.4-27.2 1.8c-.1 0-.2.1-.3.1-.2 0-.3 0-.5.1-.2 0-.3.1-.5.1l-.6.2c-.2.1-.3.1-.5.1l-.4.2-.5.3-.5.3c-.1.1-.2.2-.3.2l-.4.3c-.2.1-.4.3-.5.5l-.1.1c-.1.1-.1.1-.1.2s-.2.2-.3.3-.3.4-.4.6c-.1.1-.2.2-.2.3-.1.1-.1.2-.2.4l-.3.6c-.1.1-.1.3-.2.4s-.1.3-.2.4-.1.4-.1.6c0 .2-.1.3-.1.5s-.1.4-.1.5 0 .2-.1.3l-1.8 27.2-24.6 12c-.1 0-.2.1-.3.2l-.4.2-.5.3-.4.4-.3.3-.4.4-.4.4-.3.4c-.1.1-.2.3-.3.4-.1.2-.2.3-.3.5-.1.1-.2.3-.2.5 0 .1-.1.2-.1.2 0 .1-.1.2-.1.3l-.2.5c0 .2-.1.4-.1.6s-.1.3-.1.5l-.1.5v1.6c0 .2 0 .4.1.5 0 .2.1.4.1.5 0 .2.1.4.1.5s0 .2.1.3l8.8 25.9-18 20.4-.2.2-.3.4c-.1.1-.2.3-.3.4s-.2.4-.3.6c-.1.1-.1.3-.2.4-.1.2-.1.3-.2.5s-.1.4-.2.6l-.1.5c0 .2-.1.3-.1.5s-.1.4-.1.6v1.6c0 .2 0 .4.1.6 0 .2.1.3.1.5l.1.5c.1.2.1.4.2.6s.1.3.2.5c.1.1.1.3.2.4.1.2.2.3.3.5s.2.3.3.4l.3.4c.1.1.1.2.2.2L20 176l-8.8 25.8c0 .1 0 .2-.1.3s-.1.3-.1.5-.1.4-.1.5c0 .2-.1.4-.1.5v1.6l.1.5c0 .2.1.4.1.5s.1.4.1.5l.2.5c0 .1 0 .2.1.3 0 .1.1.1.1.2.1.2.2.4.3.5.1.2.3.5.4.7.1.2.3.4.4.6 0 .1.1.1.1.1.1.2.3.3.4.4.2.2.4.4.6.5s.4.3.6.4l.3.2c.2.1.3.2.5.3.1 0 .2.1.3.2l24.5 12.1 1.8 27.2c0 .1 0 .2.1.3s0 .4.1.5.1.3.1.5l.1.6c.1.2.1.3.2.5l.2.4.3.5c.1.2.2.3.3.5l.2.3c.1.2.2.3.4.5.1.2.3.3.4.5s.1.1.1.2l.1.1c.1.1.3.2.4.4s.4.3.6.4l.3.2c.1.1.3.1.4.2s.4.2.7.4l.3.1c.1.1.3.1.5.1.2.1.5.2.7.2.1 0 .2.1.3.1h.6c.2 0 .3.1.5.1l27.2 1.8 12.1 24.5c0 .1.1.1.1.2.1.2.2.3.3.5s.3.4.5.7c.1.2.3.3.4.5l.1.1c.2.2.4.3.6.5s.4.3.6.5l.4.3.4.2.6.3c.1 0 .2.1.2.1.2.1.3.1.5.1.1 0 .2.1.3.1h.1c.1 0 .2 0 .3.1.3.1.6.1.9.1.2 0 .4.1.7.1h.8c.3 0 .7-.1 1-.1.2 0 .4-.1.7-.1l.4-.1h.2l25.8-8.7 20.5 18c.1.1.2.1.3.2s.2.2.4.3l.3.2c.2.1.5.3.7.4.1.1.3.1.4.2l.2.1.9.3h.1l.3.1h.1c.5.1 1 .2 1.5.2s1-.1 1.5-.1h.1l.2-.1.2-.1.9-.3.2-.1c.1-.1.3-.1.4-.2.3-.1.5-.3.7-.4.1-.1.2-.1.3-.2.1-.1.2-.2.4-.3s.2-.1.3-.2l20.5-18L202 289h.2l.4.1c.2.1.4.1.7.1.3.1.7.1 1 .1h.8l.7-.1c.3 0 .6-.1.9-.1.1 0 .2 0 .3-.1l.2-.1.2-.1c.2-.1.4-.1.5-.2l.3-.1.6-.3c.1-.1.3-.1.4-.2l.4-.3c.2-.1.4-.3.5-.5s.4-.3.6-.5l.1-.1c.1-.1.2-.3.4-.5s.4-.5.5-.7.2-.3.3-.5c0-.1.1-.1.1-.2l12.1-24.5 27.2-1.8c.2 0 .3 0 .5-.1h.6c.1 0 .2-.1.3-.1.2-.1.5-.1.7-.2.1 0 .3-.1.5-.1l.3-.1c.2-.1.5-.2.7-.4s.3-.1.4-.2l.3-.2c.2-.1.4-.3.6-.4s.3-.2.4-.4l.1-.1c0-.1.1-.1.1-.2s.3-.3.4-.5c.1-.2.2-.3.4-.5l.2-.3c.1-.1.2-.3.3-.5l.3-.5.2-.4c.1-.2.1-.3.2-.5l.1-.6c0-.2.1-.3.1-.5s0-.4.1-.5 0-.2 0-.3l1.8-27.2 24.5-12.1c.1 0 .2-.1.3-.2.2-.1.3-.2.5-.3l.3-.2c.2-.1.4-.3.5-.4s.4-.4.6-.5c.2-.1.3-.3.4-.4l.1-.1c.1-.2.3-.4.4-.6.1-.2.3-.4.4-.7.1-.2.2-.3.3-.5 0-.1.1-.1.1-.2s.1-.2.1-.3l.2-.5c0-.2.1-.4.1-.5s.1-.3.1-.5l.1-.5v-1.6c0-.2 0-.4-.1-.5 0-.2-.1-.4-.1-.5 0-.2-.1-.4-.1-.5s0-.2-.1-.3l-8.8-25.8 18-20.5.2-.2.3-.4c-.8-.3-.7-.4-.6-.6zM105 168.6c-10.3-24.8 1.6-53.3 26.4-63.5 24.8-10.3 53.3 1.6 63.5 26.4 10.3 24.8-1.5 53.3-26.4 63.5-24.8 10.2-53.2-1.6-63.5-26.4zm-19.4-26.8H26l12.4-14.1-6-17.8 55.2 22.8c-1 3.1-1.6 6.1-2 9.1zm0 16.3c.4 3 1 6 1.8 9L32.3 190l6-17.8L26 158.1h59.6zm128.7-16.3c-.4-3-1-6-1.8-9l55.1-22.9-6 17.8 12.3 14.1h-59.6zm0 16.3H274l-12.4 14.1 6 17.8-55.1-22.8c.8-3.1 1.4-6.1 1.8-9.1zM261.4 95l-55.2 22.8c-1.5-2.7-3.2-5.2-5.1-7.6L243.4 68l1.2 18.7 16.8 8.3zM232 56.5l-42.2 42.2c-2.4-1.9-5-3.6-7.6-5.1L205 38.4l8.3 16.8 18.7 1.3zm-42-24.2l-22.8 55.1c-3-.8-6-1.4-9-1.8V26l14.1 12.4 17.7-6.1zm-62.2 6l14-12.3v59.7c-3 .4-6 1-9 1.8L110 32.3l17.8 6zm-41 17l8.3-16.8 22.8 55.1c-2.7 1.5-5.2 3.2-7.6 5.1L68.1 56.5l18.7-1.2zM55.4 86.7L56.6 68l42.2 42.2c-1.9 2.4-3.6 5-5.1 7.6L38.5 95l16.9-8.3zM38.5 204.9l55.2-22.8c1.5 2.7 3.2 5.2 5.1 7.6L56.5 232l-1.2-18.7-16.8-8.4zM68 243.4l42.2-42.2c2.4 1.9 5 3.6 7.6 5.1L95 261.4l-8.3-16.8-18.7-1.2zm42 24.2l22.8-55.1c3 .8 6 1.4 9 1.8V274l-14.1-12.4-17.7 6zm62.2-6L158.1 274v-59.7c3-.4 6-1 9-1.8l22.9 55.1-17.8-6zm41-17l-8.3 16.8-22.8-55.2c2.7-1.5 5.2-3.2 7.6-5.1l42.2 42.2-18.7 1.3zm31.4-31.4l-1.2 18.8-42.2-42.2c1.9-2.4 3.6-5 5.1-7.6l55.1 22.8-16.8 8.2z" fill="#939393"/></svg>