<svg id="Layer_1" data-name="Layer 1" xmlns="http://www.w3.org/2000/svg" viewBox="0 0 155.05 29.83"><defs><style>.cls-2{fill:#fff}</style></defs><path d="M16.18 9.9l.58-.33.15-.09.48.49-.28.16v1.66l.72.42.72.41.72-.41.72-.42v-1.66l-.28-.13.48-.49.15.09.58.33.57-.33.58-.33V7.91l-.58-.33-.57-.34-.58.34-.57.33v1.33l.2.11-.48.49-.22-.12-.72-.42-.72.42-.22.12-.48-.49.2-.11V7.91l-.57-.33-.58-.34-.57.34-.61.33v1.33l.58.33.57.33zm3.32-4.48l.2.12v1.33l-.57.33-.58.33L18 7.2l-.58-.33V5.54l.2-.12-.92-.93h-.08l-.42.24-.41-.24-.42-.23v-1l.42-.24.41-.24.42.24.41.24v1l-.11.06.92.94.16-.05.57-.33.58.33.15.09.92-.94-.11-.06v-1l.41-.24.42-.24.41.24.42.24v1l-.42.23-.41.24-.42-.24h-.07l-.93.93zM14.23 6.9l.41-.24v-1l-.41-.24-.42-.24-.41.24-.4.29v1l.41.24.41.24.42-.24zm-2.54-2.68l.25-.14v-.57l-.25-.14-.24-.14-.25.14-.2.14v.57l.24.14.25.14.24-.14zm1.64-2.51l.24.14.24.14.25-.14.24-.14v-.56L14.06 1l-.25-.14-.24.14-.24.14v.56zm9.13 4.47v.48l.41.24.42.24.41-.24.42-.24v-1l-.42-.24-.41-.24-.42.24-.41.24v.47zm2.71-2.67v.57l.24.14.24.14.25-.14.24-.14v-.57l-.24-.14-.25-.14-.24.14-.24.14zm-1.4-1.8v-.56L23.53 1l-.24-.14L23 1l-.24.14v.56l.24.14.25.14.24-.14.24-.14zm-5 .37l.23-.14v-.57l-.25-.14-.24-.14-.24.14-.25.14v.57l.25.14.24.14zm-2.59 17.11l.58.33.15.09.48-.49-.28-.12v-1.7l.72-.42.72-.41.72.41.72.42V19l-.28.16.48.49.15-.09.58-.33.57.33.58.33v1.33l-.58.33-.57.33-.58-.33-.57-.33v-1.37l.2-.11-.48-.49-.22.12-.72.42-.72-.42-.22-.12-.48.49.2.11v1.33l-.57.33-.58.33-.57-.33-.61-.33v-1.33l.58-.33.57-.33zm3.32 4.47l.2-.11v-1.33l-.57-.33-.58-.33-.57.33-.58.33v1.33l.2.11-.92.94-.08-.05-.42-.23-.41.23-.42.24v1l.42.24.41.24.42-.27.41-.24v-1l-.11-.06.92-.94.16.09.57.33.58-.33.15-.09.92.94-.11.06v1l.41.24.42.24.41-.24.42-.24v-1l-.42-.24-.41-.23-.42.23-.07.05-.93-.94zm-5.27-1.47l.41.24v.95l-.41.24-.42.24-.41-.24-.4-.24v-.95l.41-.24.41-.24.42.24zm-2.54 2.68l.25.14v.56l-.25.15-.24.14-.25-.14-.2-.15V25l.24-.14.25-.14.24.14zm1.64 2.51l.24-.14.24-.14.25.14.24.14v.56l-.24.14-.25.14-.24-.14-.24-.14v-.56zm9.13-4.48v-.47l.41-.24.42-.24.41.24.42.24v.95l-.42.24-.41.24-.42-.24-.41-.24v-.48zm2.71 2.67V25l.24-.14.24-.14.25.14.24.14v.56l-.24.15-.25.14-.24-.14-.24-.15zm-1.4 1.81v.56l-.24.14-.24.14-.29-.14-.24-.14v-.56l.24-.14.25-.14.24.14.24.14zm-5-.37l.25.14v.57l-.25.14-.24.14-.24-.14-.25-.14v-.57l.25-.14.24-.14zm4.42-14.83l.34.57.08.15-.48.49-.13-.28h-1.7l-.41.72-.42.71.42.72.41.72H23l.17-.28.48.49-.08.15-.34.57.34.58.33.57h1.33l.33-.57.33-.58-.33-.57-.33-.58h-1.37l-.12.2-.49-.48.13-.22.41-.72-.41-.71-.13-.22.49-.49.12.21h1.33l.33-.58.33-.57-.33-.58-.33-.6h-1.33l-.33.57-.34.58zm4.48 3.31l-.12.2h-1.32l-.34-.57-.33-.58.33-.57.34-.58h1.32l.12.21.94-.93-.05-.08-.24-.41.24-.42.24-.41h1l.24.41.24.42-.24.41-.24.42h-1l-.07-.12-.93.93.09.15.33.57-.33.58-.09.15.93.93.07-.12h1l.24.42.24.41-.24.42-.24.41h-1l-.24-.41-.24-.42.24-.41.05-.08-.94-.93zm-1.48-5.27l.24.42h1l.24-.42.24-.41-.24-.42-.28-.39h-1l-.24.41-.15.4.24.41zm2.69-2.54l.14.25h.56l.14-.25.14-.24-.14-.24-.14-.2H29l-.14.25-.15.24.15.24zm2.5 1.64l-.14.24-.14.25.14.24.14.25H32l.14-.25.14-.24-.14-.25-.14-.24h-.57zm-4.47 9.13h-.48l-.24.42-.24.41.24.41.24.42h1l.24-.42.24-.41-.24-.41-.24-.42zm2.67 2.71H29l-.14.24-.15.25.15.24.14.25h.56l.14-.25.14-.24-.14-.25-.14-.24zm1.8-1.39H32l.14-.25.14-.24-.19-.28-.09-.21h-.57l-.14.25-.14.24.14.24.14.25zm-.36-5l.14.24h.56l.14-.24.14-.25-.14-.24-.14-.24h-.56l-.16.26-.14.24zm-17.11-2.59l-.34.57-.08.15.49.49.16-.28h1.66l.41.72.42.71-.42.72-.41.74h-1.66l-.14-.3-.49.49.08.15.34.57-.34.58-.33.57h-1.35l-.33-.57-.33-.58.33-.57.33-.58h1.33l.12.2.49-.48-.13-.22-.41-.72.41-.71.13-.22-.49-.49-.12.21h-1.33l-.33-.58-.33-.57.33-.58.33-.57h1.33l.33.57.34.58zm-4.48 3.31l.12.2h1.33l.33-.57.33-.58-.33-.54-.33-.58H9.55l-.12.21-.93-.93v-.08l.24-.41-.24-.42-.24-.41h-1l-.24.41-.23.42.23.41.24.42h1l.07-.12.93.93-.04.15-.34.57.34.58.08.15-.93.93-.07-.12h-1l-.24.42-.23.41.23.42.24.41h1l.24-.41.24-.42-.24-.41v-.08l.93-.93zm1.48-5.27l-.24.42h-1l-.24-.42-.24-.41.24-.42.28-.39h1l.24.41.24.42-.24.41zM8.23 7.68l-.15.25h-.56l-.14-.25-.14-.24.14-.24.14-.2h.56l.15.25.14.24-.14.24zM5.72 9.32l.14.24.14.25-.14.24-.14.25h-.57L5 10.05l-.14-.24.14-.25.14-.24h.57zm4.47 9.13h.48l.24.42.24.41-.24.41-.24.42h-1l-.24-.42-.24-.41.24-.41.24-.42zm-2.67 2.71h.56l.15.24.14.25-.14.24-.15.25h-.56l-.14-.25-.14-.24.14-.25.14-.24zm-1.8-1.39h-.57L5 19.52l-.14-.24L5 19l.14-.25h.57l.14.25.14.24-.14.24-.14.25zm.36-5l-.14.23h-.56l-.14-.24-.14-.25.14-.24.14-.24h.56l.14.24.14.24z" fill-rule="evenodd" fill="#fff"/><path class="cls-2" d="M54.48 22.39h-4.7a.65.65 0 0 1-.55-.31l-2.36-3.62-2.36 3.62a.61.61 0 0 1-.55.31h-4.69c-.37 0-.53-.25-.31-.55l5-7.18-4.7-6.75c-.24-.3-.06-.55.31-.55h4.69a.62.62 0 0 1 .56.31l2.08 3.22L49 7.67a.6.6 0 0 1 .55-.31h4.69c.37 0 .52.25.31.55l-4.69 6.75 4.93 7.18c.21.3.06.55-.31.55z"/><path class="cls-2" d="M67.33 16.59h-8.65c.43 1.35 1.65 2 3.46 2a4.89 4.89 0 0 0 2.7-.8c.31-.19.49-.16.68.06l1.78 1.75c.21.21.18.43-.07.67a7.94 7.94 0 0 1-5.55 2.3 7.69 7.69 0 0 1-8.06-7.79 7.62 7.62 0 0 1 7.67-7.76c4.38 0 7.2 3.44 7.2 7.55 0 1.35-.18 2.02-1.16 2.02zm-8.74-3.16H64a2.51 2.51 0 0 0-2.63-2.11 2.6 2.6 0 0 0-2.78 2.11zM70.33 0h4.14a.43.43 0 0 1 .46.46v21.47a.44.44 0 0 1-.46.46h-4.14a.44.44 0 0 1-.46-.46V.46a.44.44 0 0 1 .46-.46zm21.93 7.82v14.11a.44.44 0 0 1-.46.46h-3.5a.46.46 0 0 1-.46-.46l-.15-1.17a5.07 5.07 0 0 1-4.11 1.84c-4.2 0-7.27-3.37-7.27-7.7s3.07-7.85 7.27-7.85a5.07 5.07 0 0 1 4.11 2l.15-1.26a.45.45 0 0 1 .46-.46h3.5a.43.43 0 0 1 .46.49zm-5.09 7a3 3 0 1 0-6 0 3 3 0 1 0 6 0zm16.93 2.05c.24-.19.46-.22.67 0l2.52 2.42a.45.45 0 0 1 0 .64 7.84 7.84 0 0 1-5.92 2.67 7.72 7.72 0 0 1-7.73-7.85 7.65 7.65 0 0 1 7.73-7.7 7.76 7.76 0 0 1 5.82 2.67.44.44 0 0 1 0 .65l-2.51 2.45c-.22.21-.43.15-.68-.06a3.68 3.68 0 0 0-2.48-1 2.92 2.92 0 0 0-3 3 3 3 0 0 0 3 3.13 3.87 3.87 0 0 0 2.58-1.02zm3.65-2a7.88 7.88 0 1 1 7.88 7.82 7.83 7.83 0 0 1-7.88-7.82zm10.88 0a3 3 0 1 0-6 0 3 3 0 1 0 6 0zm17.48-6.31L135 11.5c-.12.4-.4.46-.77.37a3.59 3.59 0 0 0-1.29-.25 2.9 2.9 0 0 0-3 3.19v7.12a.44.44 0 0 1-.46.46h-4.14a.44.44 0 0 1-.46-.46V7.82a.43.43 0 0 1 .46-.46h4a.45.45 0 0 1 .46.46l.12 1.84A4.23 4.23 0 0 1 133.81 7a3.2 3.2 0 0 1 2.12.8.6.6 0 0 1 .18.76zm13.28 8.03h-8.65c.43 1.35 1.66 2 3.47 2a4.89 4.89 0 0 0 2.7-.8c.31-.19.49-.16.67.06l1.78 1.75c.22.21.19.43-.06.67a7.94 7.94 0 0 1-5.55 2.3 7.7 7.7 0 0 1-8.07-7.79 7.62 7.62 0 0 1 7.67-7.76c4.39 0 7.21 3.44 7.21 7.55 0 1.35-.19 2.02-1.17 2.02zm-8.74-3.16h5.4a2.52 2.52 0 0 0-2.64-2.11 2.6 2.6 0 0 0-2.76 2.11z"/></svg>