<svg id="Layer_1" data-name="Layer 1" xmlns="http://www.w3.org/2000/svg" viewBox="0 0 414.22 680.1"><title>Fabacus_icon_outline_black</title><path d="M423.88,417.46V301.12c0-8.74-5.82-14.57-14.56-14.58H193.2L416.32,169.6c6.24-3.12,7.56-8.39,7.56-14.56V38.23c0-8.74-5.82-14.57-14.56-14.58H24.22c-8.73,0-14.56,5.82-14.56,14.56V155c0,8.75,5.81,14.58,14.55,14.59H371.78l-223.12,117c-6.25,3.13-7.56,8.4-7.56,14.56V417.35c0,8.74,5.81,14.57,14.55,14.58H390L278.37,552.42c-5.29,5.29-5.78,8.2-5.78,14.47V689.17c0,8.74,5.82,14.58,14.56,14.58H409.32c8.73,0,14.56-5.82,14.56-14.55V567c0-8.74-5.81-14.57-14.55-14.58H306.51L418.1,431.93C423.39,426.64,423.88,423.73,423.88,417.46ZM30.3,149V44.3H403.23V149ZM403.24,573.07v110h-110v-110ZM390,411.28H161.75V307.19H403.23V411.28Z" transform="translate(-9.66 -23.65)"/></svg>