<svg id="Layer_1" data-name="Layer 1" xmlns="http://www.w3.org/2000/svg" viewBox="0 0 599.53 108.07"><defs><style>.cls-1{fill:#fff;}</style></defs><title>Fabacus_logo</title><path class="cls-1" d="M141.67,7.24l-51.28,0a2,2,0,0,0-2.07,2.07l-.07,92.36a1.94,1.94,0,0,0,2.06,2.07l19.44,0a2,2,0,0,0,2.07-2.07l0-36.53,28,0a2,2,0,0,0,2.07-2.06l0-16.55a2,2,0,0,0-2.07-2.07l-28,0,0-16.54,29.77,0a1.94,1.94,0,0,0,2.07-2.06l0-16.54A2,2,0,0,0,141.67,7.24Z"/><path class="cls-1" d="M220.5,36.25H203.68a2,2,0,0,0-2.07,2.06l-.41,5.1c-4.69-5.24-10.89-8.83-18.47-8.84-18.61,0-32.41,15.83-32.42,35.54s13.75,35.58,32.36,35.6a24.79,24.79,0,0,0,18.48-8.26l.41,4.27a2,2,0,0,0,2.07,2.07l16.82,0a2,2,0,0,0,2.07-2.07l0-63.41A2,2,0,0,0,220.5,36.25ZM185.58,84.88c-7.72,0-13.36-6.49-13.36-14.9s5.67-14.6,13.39-14.6,13.5,6.77,13.5,14.63S193.44,84.89,185.58,84.88Z"/><path class="cls-1" d="M274,34.64a24.29,24.29,0,0,0-17.1,7.29l0-36.67a2,2,0,0,0-2.07-2.07H236.24a1.94,1.94,0,0,0-2.06,2.06l-.08,96.5a2,2,0,0,0,2.06,2.07H253a2,2,0,0,0,2.07-2.06l.42-4.28a24.76,24.76,0,0,0,18.46,8.29c18.61,0,32.41-15.83,32.43-35.54S292.6,34.65,274,34.64ZM271.05,85c-7.85,0-13.5-6.9-13.49-14.9,0-7.85,5.66-14.6,13.52-14.6s13.37,6.22,13.36,14.62S278.77,85,271.05,85Z"/><path class="cls-1" d="M383.45,36.38H366.63a2,2,0,0,0-2.07,2.06l-.42,5.1c-4.68-5.24-10.88-8.83-18.46-8.83-18.61,0-32.41,15.82-32.43,35.54s13.76,35.57,32.37,35.59a24.83,24.83,0,0,0,18.48-8.26l.41,4.28a2,2,0,0,0,2.06,2.07h16.82a2,2,0,0,0,2.07-2.07l.05-63.41A2,2,0,0,0,383.45,36.38ZM348.53,85c-7.72,0-13.37-6.49-13.36-14.9s5.66-14.61,13.38-14.6,13.51,6.76,13.5,14.62S356.39,85,348.53,85Z"/><path class="cls-1" d="M445,80c-1-1-1.93-.83-3,0a17.23,17.23,0,0,1-11.58,4.54c-7.86,0-13.37-6.21-13.36-14.21S422.58,56,430.44,56c3.58,0,7.3,1.24,11.16,4.55,1.1,1,2.07,1.25,3,.28l11.32-11a2,2,0,0,0,.14-2.89,34.88,34.88,0,0,0-26.18-12c-19.44,0-34.76,15.55-34.77,35.4s15.27,35.44,34.71,35.46a35.27,35.27,0,0,0,26.61-12,2,2,0,0,0-.13-2.9Z"/><path class="cls-1" d="M531.09,36.5H512.48a2,2,0,0,0-2.07,2.06l0,34.88c0,5.24-3.45,11-11.45,11-4.27,0-10.89-2.22-10.88-13l0-32.94A2,2,0,0,0,486,36.47l-18.61,0a2,2,0,0,0-2.07,2.07l0,37.77c0,18.06,10.87,29.51,25.89,29.52,7.86,0,14.62-4.54,19.17-11.15l.55,7.3A2,2,0,0,0,513,104h18A2,2,0,0,0,533.1,102l.06-63.41A2,2,0,0,0,531.09,36.5Z"/><path class="cls-1" d="M566,56.52c0-1.24.83-3.58,4.83-3.58,3.72,0,6.34,1.38,11.58,4.28,1.24.69,2.2,1.24,3,.14l6.9-9.23a2.12,2.12,0,0,0,.14-2.89C586.78,38.62,578,35,568.31,35,556.18,35,544,42.58,544,56.78c0,22.74,30,19.32,30,26.9,0,3.31-3.72,3.31-5.93,3.31-3.58,0-8.68-1.11-15.43-5.12-1.24-.69-2.35-1-3.17.14l-6.77,9.64a2.51,2.51,0,0,0,0,2.9c4.82,5.65,14.33,11.31,26,11.32,12.82,0,27.3-7.7,27.31-21.76C596.14,58.89,566,65.07,566,56.52Z"/><path class="cls-1" d="M63.45,62.37V45.86a2,2,0,0,0-2.06-2.07H30.72l31.66-16.6a2,2,0,0,0,1.07-2.06V8.55a2,2,0,0,0-2.06-2.07H6.74A2,2,0,0,0,4.67,8.55V25.13A2,2,0,0,0,6.74,27.2H56.06L24.4,43.79a2,2,0,0,0-1.08,2.07V62.35a1.94,1.94,0,0,0,2.06,2.07H58.64L42.8,81.52a2.31,2.31,0,0,0-.82,2v17.35A2,2,0,0,0,44,103H61.39a1.94,1.94,0,0,0,2.06-2.06V83.59a1.94,1.94,0,0,0-2.06-2.07H46.8l15.83-17.1A2.31,2.31,0,0,0,63.45,62.37ZM7.6,24.27V9.41H60.52V24.27H7.6ZM60.52,84.45v15.61H44.91V84.45H60.52Zm-1.88-23H26.25V46.72H60.52V61.49Z"/></svg>