<?xml version="1.0" encoding="utf-8"?>
<!-- Generator: Adobe Illustrator 22.1.0, SVG Export Plug-In . SVG Version: 6.00 Build 0)  -->
<svg version="1.1" id="Layer_1" xmlns="http://www.w3.org/2000/svg" xmlns:xlink="http://www.w3.org/1999/xlink" x="0px" y="0px"
	 viewBox="0 0 300 300" style="enable-background:new 0 0 300 300;" xml:space="preserve">
<style type="text/css">
	.st0{fill:#939393;}
</style>
<title>xelacore_iconsfinal</title>
<path class="st0" d="M300,150c0-18.5-14.6-34.3-39.6-45.7c9.7-25.8,8.8-47.2-4.3-60.3s-34.6-14-60.4-4.3C184.4,14.6,168.5,0,150,0
	s-34.4,14.6-45.7,39.6c-25.8-9.7-47.2-8.8-60.3,4.3s-14,34.6-4.3,60.3C14.6,115.6,0,131.5,0,150s14.6,34.4,39.6,45.7
	c-9.7,25.8-8.8,47.2,4.3,60.4c7.3,7.3,17.2,10.8,29,10.8c9.4,0,19.9-2.3,31.3-6.5c11.4,25.1,27.2,39.6,45.8,39.6
	s34.4-14.6,45.7-39.6c11.4,4.3,21.9,6.5,31.3,6.5c11.8,0,21.7-3.5,29-10.8c13.1-13.1,14-34.6,4.3-60.4
	C285.4,184.4,300,168.5,300,150z M226.7,48.9c7.4,0,13.5,2,17.9,6.5c8.9,8.9,8.1,24.5,0.8,43c-11.5-3.8-23.3-6.7-35.3-8.6
	c-1.9-12-4.8-23.7-8.6-35.2C210.8,51,219.3,48.9,226.7,48.9z M150,198.6c-26.9,0-48.7-21.8-48.7-48.6s21.8-48.7,48.6-48.7
	s48.7,21.8,48.7,48.6v0C198.6,176.9,176.9,198.6,150,198.6z M176.5,86c-4.2-3.7-8.5-7.3-12.7-10.6c7.4-5.1,15-9.7,22.9-13.9
	c2.6,8.5,4.7,17.2,6.4,26C187.7,86.9,182.2,86.4,176.5,86z M123.5,86c-5.7,0.4-11.2,0.9-16.5,1.5c1.6-8.8,3.7-17.5,6.4-26
	c7.9,4.2,15.5,8.8,22.9,13.9C132,78.7,127.8,82.3,123.5,86L123.5,86z M86,123.5c-3.7,4.3-7.3,8.5-10.7,12.7
	c-5.1-7.4-9.7-15-13.9-22.9c8.5-2.6,17.2-4.7,26-6.4C86.8,112.3,86.4,117.8,86,123.5z M86,176.5c0.4,5.7,0.9,11.2,1.5,16.5
	c-8.8-1.6-17.5-3.7-26-6.4c4.2-7.9,8.8-15.5,13.9-22.9C78.7,168,82.3,172.3,86,176.5L86,176.5z M123.5,214
	c4.3,3.7,8.5,7.3,12.7,10.7c-7.4,5.1-15,9.7-22.9,13.9c-2.6-8.5-4.8-17.2-6.4-26C112.3,213.2,117.8,213.6,123.5,214z M176.5,214
	c5.7-0.4,11.2-0.9,16.6-1.5c-1.6,8.8-3.7,17.5-6.4,26c-7.9-4.2-15.5-8.8-22.9-13.9C168,221.3,172.2,217.7,176.5,214L176.5,214z
	 M214,176.5c3.7-4.3,7.3-8.5,10.7-12.7c5.1,7.4,9.7,15,13.9,22.9c-8.5,2.6-17.2,4.7-26,6.4C213.1,187.7,213.6,182.2,214,176.5z
	 M214,123.5c-0.4-5.7-0.9-11.2-1.5-16.5c8.8,1.6,17.5,3.7,26,6.4c-4.2,7.9-8.8,15.5-13.9,22.9C221.3,132,217.7,127.8,214,123.5
	L214,123.5z M150,16.2c12.6,0,23,11.6,31,29.8c-10.8,5.5-21.2,11.8-31,18.8c-9.8-7.1-20.2-13.4-31-18.8
	C127,27.8,137.4,16.2,150,16.2z M55.4,55.4c8.9-8.9,24.5-8.1,43-0.8c-3.8,11.5-6.7,23.3-8.6,35.3c-12,1.9-23.7,4.8-35.3,8.6
	C47.3,79.9,46.5,64.3,55.4,55.4z M16.2,150c0-12.6,11.6-23,29.8-31c5.5,10.8,11.8,21.2,18.8,31c-7.1,9.8-13.4,20.2-18.8,31
	C27.8,173,16.2,162.6,16.2,150z M55.4,244.6c-8.9-8.9-8.1-24.5-0.8-43c11.5,3.8,23.3,6.7,35.3,8.6c1.9,12,4.8,23.7,8.6,35.3
	C79.9,252.7,64.3,253.5,55.4,244.6z M150,283.8c-12.6,0-23.1-11.6-31-29.9c10.8-5.5,21.2-11.8,31-18.9c9.8,7.1,20.2,13.4,31,18.9
	C173,272.2,162.6,283.8,150,283.8z M244.6,244.6c-8.9,8.9-24.5,8.1-43,0.8c3.8-11.5,6.7-23.3,8.6-35.3c12-1.9,23.7-4.8,35.3-8.6
	C252.7,220.1,253.5,235.7,244.6,244.6z M253.9,181c-5.5-10.8-11.8-21.2-18.8-31c7.1-9.8,13.4-20.2,18.9-31c18.2,8,29.8,18.4,29.8,31
	C283.8,162.5,272.2,173,253.9,181z"/>
</svg>
