<svg id="Layer_1" data-name="Layer 1" xmlns="http://www.w3.org/2000/svg" viewBox="0 0 500 500"><defs><style>.cls-1{fill:#fff;}</style></defs><title>xelacore_iconsfinal</title><path class="cls-1" d="M398.76,254.26c.11-.17.2-.33.29-.5a4.11,4.11,0,0,0,.21-.42c.08-.16.13-.32.2-.48s.13-.37.19-.56l.12-.46a4.21,4.21,0,0,0,.09-.49,4,4,0,0,0,.08-.58c0-.18,0-.35,0-.52s0-.17,0-.25,0-.16,0-.25,0-.34,0-.52a4,4,0,0,0-.08-.58,4.21,4.21,0,0,0-.09-.49l-.12-.46c-.06-.19-.12-.37-.19-.56s-.12-.32-.2-.48a4.11,4.11,0,0,0-.21-.42c-.09-.17-.18-.33-.29-.5s-.18-.3-.28-.44l-.33-.41c-.06-.08-.1-.16-.16-.23l-18-20.52,8.77-25.83c0-.09,0-.18.06-.27s.1-.34.14-.52a4.51,4.51,0,0,0,.1-.53,5,5,0,0,0,.07-.54,3.88,3.88,0,0,0,0-.48,4.87,4.87,0,0,0,0-.54,5.44,5.44,0,0,0,0-.57l-.06-.46c0-.18-.07-.35-.11-.52s-.09-.37-.14-.55l-.17-.48a1.83,1.83,0,0,0-.08-.25,2.53,2.53,0,0,0-.12-.23c-.07-.16-.15-.31-.23-.46a4.76,4.76,0,0,0-.28-.49c-.1-.15-.19-.3-.29-.44s-.18-.25-.28-.37-.25-.29-.39-.44l-.37-.38-.35-.3a5.07,5.07,0,0,0-.46-.35,4.27,4.27,0,0,0-.44-.3c-.14-.09-.29-.17-.44-.25s-.16-.12-.25-.16l-24.47-12.07-1.78-27.22c0-.1,0-.19-.05-.29s0-.35-.07-.53a4.1,4.1,0,0,0-.1-.48,5.69,5.69,0,0,0-.16-.59,4,4,0,0,0-.15-.45c0-.14-.11-.27-.17-.41s-.2-.43-.31-.64-.14-.24-.22-.36l-.21-.33a7.21,7.21,0,0,0-.47-.62l-.3-.32c-.06-.06-.1-.13-.15-.19l-.1-.07a6.91,6.91,0,0,0-.57-.51c-.11-.09-.23-.17-.35-.25L355,143l-.26-.19c-.19-.13-.4-.24-.6-.35l-.44-.2,0,0-.35-.16a6.21,6.21,0,0,0-.61-.2l-.5-.13-.44-.1-.61-.07-.26-.05-27.22-1.78-12.07-24.47c0-.09-.11-.16-.16-.25s-.15-.29-.24-.43-.2-.3-.31-.45a5.55,5.55,0,0,0-.35-.46l-.3-.34a4.54,4.54,0,0,0-.38-.38,5.46,5.46,0,0,0-.45-.39,3,3,0,0,0-.35-.27c-.15-.11-.3-.2-.45-.3a4.76,4.76,0,0,0-.49-.28l-.45-.23c-.09,0-.15-.09-.24-.12a2,2,0,0,0-.26-.08l-.46-.16-.56-.15-.54-.11-.42,0-.59,0a5.42,5.42,0,0,0-.57,0l-.43,0-.55.07-.58.11-.47.14c-.09,0-.19,0-.28.06L275.86,120l-20.52-18c-.07-.06-.15-.1-.23-.16a4.23,4.23,0,0,0-.41-.33c-.14-.1-.29-.19-.44-.28l-.5-.29-.43-.22c-.15-.07-.31-.12-.47-.18l-.56-.2-.46-.12a4.21,4.21,0,0,0-.49-.09,3.78,3.78,0,0,0-.56-.08l-.56,0-.23,0a2.3,2.3,0,0,0-.26,0l-.48,0a6.17,6.17,0,0,0-.62.09l-.5.09-.4.11a6.26,6.26,0,0,0-.61.21c-.16.06-.33.12-.48.19l-.38.19-.54.31-.44.29c-.14.1-.26.2-.39.31a2.07,2.07,0,0,0-.24.17l-20.52,18-25.83-8.77c-.09,0-.18,0-.27-.06l-.49-.14-.57-.11-.55-.07-.43,0h-.58l-.59,0-.4,0-.55.11-.58.16-.43.14c-.09,0-.18,0-.27.09a2.39,2.39,0,0,0-.22.12,4.59,4.59,0,0,0-.5.24l-.44.26c-.16.1-.31.19-.46.3s-.26.19-.39.3a4.48,4.48,0,0,0-.4.36,4.75,4.75,0,0,0-.4.38l-.31.36c-.12.14-.23.29-.34.44l-.31.45-.24.44c-.05.09-.12.16-.16.25l-12.07,24.47-27.22,1.78c-.11,0-.22.05-.32.06a3.93,3.93,0,0,0-.48.06,4.59,4.59,0,0,0-.51.1l-.58.16c-.16.05-.32.09-.47.15l-.43.19-.52.25-.5.29a4.15,4.15,0,0,0-.34.24l-.43.31c-.18.15-.35.3-.51.46l-.12.09c-.05.06-.09.13-.15.19s-.21.22-.31.34-.31.39-.45.59a4,4,0,0,0-.22.34c-.08.12-.15.24-.22.37a6.14,6.14,0,0,0-.31.63c-.06.13-.12.27-.17.41s-.11.3-.16.45-.1.39-.15.59a4.1,4.1,0,0,0-.1.48c0,.18-.05.35-.07.53s0,.19-.05.29l-1.78,27.22-24.47,12.07c-.09,0-.16.11-.25.16l-.44.24-.45.31-.45.35-.35.3c-.13.12-.25.26-.38.39s-.26.28-.38.43l-.28.36c-.1.15-.2.3-.29.45a4.76,4.76,0,0,0-.28.49c-.08.15-.16.3-.23.46a2.53,2.53,0,0,0-.12.23,1.83,1.83,0,0,0-.08.25l-.17.48c0,.18-.1.37-.14.55s-.08.34-.11.52l-.06.46a5.44,5.44,0,0,0,0,.57,4.87,4.87,0,0,0,0,.54,3.88,3.88,0,0,0,0,.48,5,5,0,0,0,.07.54,4.51,4.51,0,0,0,.1.53c0,.18.09.35.14.52s0,.18.06.27L120,224.14l-18,20.52c-.06.07-.1.15-.16.23l-.33.41c-.1.14-.19.29-.28.44s-.2.33-.29.5a4.11,4.11,0,0,0-.21.42c-.08.16-.13.32-.2.48s-.13.37-.19.56l-.12.46a4.21,4.21,0,0,0-.09.49,4,4,0,0,0-.08.58c0,.18,0,.35,0,.52s0,.17,0,.25,0,.16,0,.25,0,.34,0,.52a4,4,0,0,0,.08.58,4.21,4.21,0,0,0,.09.49l.12.46c.06.19.12.37.19.56s.12.32.2.48a4.11,4.11,0,0,0,.21.42c.09.17.18.33.29.5s.18.3.28.44l.33.41c.06.08.1.16.16.23l18,20.52-8.77,25.83c0,.09,0,.18-.06.27s-.1.34-.14.52a4.51,4.51,0,0,0-.1.53,5,5,0,0,0-.07.54,3.88,3.88,0,0,0,0,.48,4.87,4.87,0,0,0,0,.54,5.44,5.44,0,0,0,0,.57l.06.46c0,.18.07.35.11.52s.09.37.14.55l.17.48a1.83,1.83,0,0,0,.08.25c0,.06.07.1.09.16a5.2,5.2,0,0,0,.26.53,6.68,6.68,0,0,0,.41.67c.14.21.28.42.43.62a.88.88,0,0,0,.12.15,5.93,5.93,0,0,0,.43.44c.18.18.37.37.57.54s.36.28.55.41l.32.22a4.39,4.39,0,0,0,.47.27c.09,0,.16.12.25.16l24.47,12.07,1.78,27.22c0,.1,0,.19.05.29s0,.35.07.53.06.3.09.46l.15.57c.06.16.11.33.17.49l.16.4.27.54c.09.16.17.32.27.47l.22.33a5.74,5.74,0,0,0,.35.47c.13.16.27.32.41.47s.1.13.15.19l.1.07c.13.13.26.23.39.35s.37.3.57.44l.27.21c.13.08.27.14.41.22s.44.24.68.35l.28.14c.15.06.31.09.46.14a5.94,5.94,0,0,0,.72.21,2.8,2.8,0,0,0,.31.09l.16,0c.12,0,.25,0,.37,0a3.86,3.86,0,0,0,.49.09l27.22,1.78,12.07,24.47a2.14,2.14,0,0,0,.13.19c.09.17.17.34.27.5s.32.44.49.66a6.26,6.26,0,0,0,.39.51l.11.12c.17.18.37.33.55.5s.39.34.6.5l.39.26.36.2c.21.12.42.23.64.33a1.83,1.83,0,0,0,.24.13,4.58,4.58,0,0,0,.49.15c.11,0,.2.09.31.12l.13,0c.1,0,.21,0,.31.06a6,6,0,0,0,.85.14c.22,0,.44.06.67.07l.34,0h.08c.12,0,.24,0,.37,0a8.4,8.4,0,0,0,1-.11c.22,0,.45-.09.67-.15l.35-.09.16,0L224.14,380l20.52,18c.1.09.22.15.32.24s.24.2.37.29l.31.2a7.43,7.43,0,0,0,.73.4c.13.06.25.15.39.21l.23.08a6,6,0,0,0,.94.29l.12,0,.27.09.13,0A8.62,8.62,0,0,0,250,400h0a8.62,8.62,0,0,0,1.53-.15l.13,0,.22-.07.17-.06a6,6,0,0,0,.94-.29l.24-.09a2.64,2.64,0,0,0,.37-.2,7.58,7.58,0,0,0,.74-.4c.1-.07.21-.13.31-.21s.24-.19.36-.28.23-.15.33-.24l20.52-18,25.83,8.77.16,0,.35.09c.22.06.44.11.67.15a8.16,8.16,0,0,0,1,.11c.13,0,.25,0,.37,0h.08l.34,0,.66-.06a8.79,8.79,0,0,0,.87-.15c.09,0,.19,0,.28-.06l.2-.07.22-.09c.18-.06.36-.09.53-.16l.26-.13.6-.32c.13-.07.26-.13.38-.21l.4-.28c.2-.14.37-.3.55-.45s.41-.34.59-.53l.12-.13c.13-.15.24-.32.37-.48s.35-.45.5-.69.18-.32.27-.49a2.14,2.14,0,0,0,.13-.19l12.07-24.47,27.22-1.78a3.86,3.86,0,0,0,.49-.09c.12,0,.25,0,.37,0l.16,0a2.8,2.8,0,0,0,.31-.09,5.94,5.94,0,0,0,.72-.21c.15-.05.31-.08.46-.14l.28-.14c.24-.11.46-.23.68-.35s.28-.14.41-.22l.27-.21c.2-.14.38-.29.57-.44s.26-.22.39-.35l.1-.07c.05-.06.09-.13.15-.19s.28-.31.41-.47a5.74,5.74,0,0,0,.35-.47l.22-.33c.1-.15.18-.31.27-.47l.27-.54.16-.4c.06-.16.11-.33.17-.49l.15-.57c0-.16.07-.31.09-.46s.05-.35.07-.53,0-.19.05-.29l1.78-27.22,24.47-12.07c.09,0,.16-.11.25-.16a4.39,4.39,0,0,0,.47-.27l.32-.22c.19-.13.37-.26.55-.41s.39-.36.57-.54a5.93,5.93,0,0,0,.43-.44.88.88,0,0,0,.12-.15c.15-.2.29-.41.43-.62a6.68,6.68,0,0,0,.41-.67,5.2,5.2,0,0,0,.26-.53c0-.06.07-.1.09-.16a1.83,1.83,0,0,0,.08-.25l.17-.48c.05-.18.1-.37.14-.55s.08-.34.11-.52l.06-.46a5.44,5.44,0,0,0,0-.57,4.87,4.87,0,0,0,0-.54,3.88,3.88,0,0,0,0-.48,5,5,0,0,0-.07-.54,4.51,4.51,0,0,0-.1-.53c0-.18-.09-.35-.14-.52s0-.18-.06-.27L380,275.86l18-20.52c.06-.07.1-.15.16-.23l.33-.41C398.58,254.56,398.67,254.41,398.76,254.26ZM205.05,268.62A48.65,48.65,0,1,1,268.62,295,48.72,48.72,0,0,1,205.05,268.62Zm-19.37-26.73H126l12.36-14.1-6-17.75,55.15,22.84A62.5,62.5,0,0,0,185.68,241.89Zm0,16.22a65.33,65.33,0,0,0,1.81,9L132.34,290l6-17.75L126,258.11Zm128.64-16.22a65.33,65.33,0,0,0-1.81-9L367.66,210l-6,17.75L374,241.89Zm0,16.22H374l-12.36,14.1,6,17.75-55.15-22.84A62.5,62.5,0,0,0,314.32,258.11Zm47.14-63.05L306.31,217.9a66.05,66.05,0,0,0-5.1-7.65l42.2-42.2,1.23,18.72ZM332,156.59l-42.2,42.2a66.05,66.05,0,0,0-7.65-5.1l22.84-55.15,8.29,16.82Zm-42-24.25-22.84,55.14a63.85,63.85,0,0,0-9-1.8V126l14.1,12.36Zm-62.17,6L241.89,126v59.68a65.33,65.33,0,0,0-9,1.81L210,132.34Zm-41,17,8.29-16.82,22.84,55.15a66.05,66.05,0,0,0-7.65,5.1l-42.2-42.2Zm-31.41,31.41,1.23-18.72,42.2,42.2a66.05,66.05,0,0,0-5.1,7.65l-55.15-22.84ZM138.54,304.94l55.15-22.84a66.05,66.05,0,0,0,5.1,7.65L156.59,332l-1.23-18.72Zm29.51,38.47,42.2-42.2a66.05,66.05,0,0,0,7.65,5.1l-22.84,55.15-8.29-16.82Zm42,24.25,22.84-55.15a65.33,65.33,0,0,0,9,1.81V374l-14.1-12.36Zm62.17-6L258.11,374V314.32a65.33,65.33,0,0,0,9-1.81L290,367.66Zm41-17-8.29,16.82L282.1,306.31a66.05,66.05,0,0,0,7.65-5.1l42.2,42.2Zm31.41-31.41L343.41,332l-42.2-42.2a66.05,66.05,0,0,0,5.1-7.65l55.15,22.84Z"/></svg>