<?xml version="1.0" encoding="utf-8"?>
<!-- Generator: Adobe Illustrator 22.1.0, SVG Export Plug-In . SVG Version: 6.00 Build 0)  -->
<svg version="1.1" id="Layer_1" xmlns="http://www.w3.org/2000/svg" xmlns:xlink="http://www.w3.org/1999/xlink" x="0px" y="0px"
	 viewBox="0 0 155.1 29.8" style="enable-background:new 0 0 155.1 29.8;" xml:space="preserve">
<style type="text/css">
	.st0{fill:#A30404;}
</style>
<path class="st0" d="M16.2,9.9l0.6-0.3l0.1-0.1l0.5,0.5l-0.3,0.2v1.7l0.7,0.4l0.7,0.4l0.7-0.4l0.7-0.4v-1.7L19.7,10l0.5-0.5l0.1,0.1
	l0.6,0.3l0.6-0.3l0.6-0.3V7.9l-0.6-0.3l-0.6-0.3l-0.6,0.3l-0.6,0.3v1.3L20,9.3l-0.5,0.5l-0.2-0.1l-0.7-0.4l-0.7,0.4l-0.2,0.1
	l-0.5-0.5l0.2-0.1V7.9l-0.6-0.3l-0.6-0.3l-0.6,0.3L15,7.9v1.3l0.6,0.3L16.2,9.9L16.2,9.9z M19.5,5.4l0.2,0.1v1.3l-0.6,0.3l-0.6,0.3
	L18,7.2l-0.6-0.3V5.5l0.2-0.1l-0.9-0.9h-0.1l-0.4,0.2l-0.4-0.2l-0.4-0.2v-1L15.8,3l0.4-0.2L16.6,3L17,3.3v1l-0.1,0.1l0.9,0.9L18,5.2
	l0.6-0.3l0.6,0.3l0.1,0.1l0.9-0.9l-0.1-0.1v-1l0.4-0.2l0.4-0.2l0.4,0.2l0.4,0.2v1l-0.4,0.2l-0.4,0.2l-0.4-0.2h-0.1L19.5,5.4
	L19.5,5.4z M14.2,6.9l0.4-0.2v-1l-0.4-0.2l-0.4-0.2l-0.4,0.2L13,5.7v1L13.4,7l0.4,0.2L14.2,6.9L14.2,6.9z M11.7,4.2l0.3-0.1V3.5
	l-0.3-0.1l-0.2-0.1l-0.3,0.1L11,3.5v0.6l0.2,0.1l0.3,0.1L11.7,4.2L11.7,4.2z M13.3,1.7l0.2,0.1L13.8,2l0.3-0.1l0.2-0.1V1.2L14.1,1
	l-0.3-0.1L13.6,1l-0.2,0.1L13.3,1.7L13.3,1.7z M22.5,6.2v0.5l0.4,0.2l0.4,0.2l0.4-0.2l0.4-0.2v-1l-0.4-0.2l-0.4-0.2l-0.4,0.2
	l-0.4,0.2V6.2L22.5,6.2z M25.2,3.5v0.6l0.2,0.1l0.2,0.1l0.3-0.1l0.2-0.1V3.5l-0.2-0.1l-0.3-0.1l-0.2,0.1C25.4,3.4,25.2,3.5,25.2,3.5
	z M23.8,1.7V1.2L23.5,1l-0.2-0.1L23,1l-0.2,0.1v0.6L23,1.8L23.3,2l0.2-0.1L23.8,1.7L23.8,1.7z M18.8,2.1L19,1.9V1.4l-0.3-0.1
	l-0.2-0.1l-0.2,0.1L18,1.4v0.6l0.3,0.1l0.2,0.1L18.8,2.1z M16.2,19.2l0.6,0.3l0.1,0.1l0.5-0.5L17.1,19v-1.7l0.7-0.4l0.7-0.4l0.7,0.4
	l0.7,0.4V19l-0.3,0.2l0.5,0.5l0.1-0.1l0.6-0.3l0.6,0.3l0.6,0.3v1.3l-0.6,0.3l-0.6,0.3l-0.6-0.3l-0.6-0.3v-1.4l0.2-0.1l-0.5-0.5
	l-0.2,0.1l-0.7,0.4l-0.7-0.4l-0.2-0.1l-0.5,0.5l0.2,0.1v1.3l-0.6,0.3l-0.6,0.3l-0.6-0.3L15,21.2v-1.3l0.6-0.3L16.2,19.2L16.2,19.2z
	 M19.5,23.7l0.2-0.1v-1.3l-0.6-0.3l-0.6-0.3L18,21.9l-0.6,0.3v1.3l0.2,0.1l-0.9,0.9l-0.1,0l-0.4-0.2l-0.4,0.2l-0.4,0.2v1l0.4,0.2
	l0.4,0.2l0.4-0.3l0.4-0.2v-1l-0.1-0.1l0.9-0.9l0.2,0.1l0.6,0.3l0.6-0.3l0.1-0.1l0.9,0.9l-0.1,0.1v1l0.4,0.2l0.4,0.2l0.4-0.2l0.4-0.2
	v-1l-0.4-0.2l-0.4-0.2l-0.4,0.2l-0.1,0L19.5,23.7L19.5,23.7z M14.2,22.2l0.4,0.2v1l-0.4,0.2l-0.4,0.2l-0.4-0.2L13,23.4v-1l0.4-0.2
	l0.4-0.2L14.2,22.2L14.2,22.2z M11.7,24.9l0.3,0.1v0.6l-0.3,0.1l-0.2,0.1l-0.3-0.1L11,25.6V25l0.2-0.1l0.3-0.1L11.7,24.9L11.7,24.9z
	 M13.3,27.4l0.2-0.1l0.2-0.1l0.3,0.1l0.2,0.1v0.6l-0.2,0.1l-0.3,0.1l-0.2-0.1l-0.2-0.1V27.4z M22.5,22.9v-0.5l0.4-0.2l0.4-0.2
	l0.4,0.2l0.4,0.2v1l-0.4,0.2l-0.4,0.2l-0.4-0.2l-0.4-0.2C22.5,23.4,22.5,22.9,22.5,22.9z M25.2,25.6V25l0.2-0.1l0.2-0.1l0.3,0.1
	l0.2,0.1v0.6l-0.2,0.1l-0.3,0.1l-0.2-0.1L25.2,25.6L25.2,25.6z M23.8,27.4v0.6l-0.2,0.1l-0.2,0.1L23,28.1l-0.2-0.1v-0.6l0.2-0.1
	l0.3-0.1l0.2,0.1L23.8,27.4L23.8,27.4z M18.8,27l0.3,0.1v0.6l-0.3,0.1L18.5,28l-0.2-0.1L18,27.7v-0.6l0.3-0.1l0.2-0.1L18.8,27z
	 M23.2,12.2l0.3,0.6l0.1,0.1l-0.5,0.5L23,13.1h-1.7l-0.4,0.7l-0.4,0.7l0.4,0.7l0.4,0.7H23l0.2-0.3l0.5,0.5l-0.1,0.1l-0.3,0.6
	l0.3,0.6l0.3,0.6h1.3l0.3-0.6l0.3-0.6l-0.3-0.6l-0.3-0.6h-1.4L23.7,16l-0.5-0.5l0.1-0.2l0.4-0.7l-0.4-0.7l-0.1-0.2l0.5-0.5l0.1,0.2
	h1.3l0.3-0.6l0.3-0.6l-0.3-0.6L25.2,11h-1.3l-0.3,0.6L23.2,12.2L23.2,12.2z M27.7,15.5l-0.1,0.2h-1.3l-0.3-0.6l-0.3-0.6l0.3-0.6
	l0.3-0.6h1.3l0.1,0.2l0.9-0.9l0-0.1l-0.2-0.4l0.2-0.4l0.2-0.4h1l0.2,0.4l0.2,0.4L30,12.6L29.8,13h-1l-0.1-0.1l-0.9,0.9l0.1,0.1
	l0.3,0.6l-0.3,0.6l-0.1,0.1l0.9,0.9l0.1-0.1h1l0.2,0.4l0.2,0.4L30,17.3l-0.2,0.4h-1l-0.2-0.4l-0.2-0.4l0.2-0.4l0-0.1
	C28.6,16.4,27.7,15.5,27.7,15.5z M26.2,10.2l0.2,0.4h1l0.2-0.4l0.2-0.4l-0.2-0.4L27.4,9h-1l-0.2,0.4L26,9.8L26.2,10.2L26.2,10.2z
	 M28.9,7.7L29,7.9h0.6l0.1-0.3l0.1-0.2l-0.1-0.2L29.6,7H29l-0.1,0.3l-0.1,0.2L28.9,7.7L28.9,7.7z M31.4,9.3l-0.1,0.2l-0.1,0.3
	l0.1,0.2l0.1,0.3H32l0.1-0.3l0.1-0.2l-0.1-0.3L32,9.3H31.4L31.4,9.3z M26.9,18.5h-0.5l-0.2,0.4L26,19.3l0.2,0.4l0.2,0.4h1l0.2-0.4
	l0.2-0.4l-0.2-0.4l-0.2-0.4H26.9z M29.6,21.2H29l-0.1,0.2l-0.1,0.3l0.1,0.2l0.1,0.3h0.6l0.1-0.3l0.1-0.2l-0.1-0.3L29.6,21.2
	L29.6,21.2z M31.4,19.8H32l0.1-0.3l0.1-0.2L32.1,19L32,18.8h-0.6L31.3,19l-0.1,0.2l0.1,0.2L31.4,19.8L31.4,19.8z M31,14.8l0.1,0.2
	h0.6l0.1-0.2l0.1-0.3l-0.1-0.2L31.7,14h-0.6L31,14.3l-0.1,0.2L31,14.8z M13.9,12.2l-0.3,0.6l-0.1,0.1l0.5,0.5l0.2-0.3h1.7l0.4,0.7
	l0.4,0.7l-0.4,0.7L15.8,16h-1.7L14,15.7l-0.5,0.5l0.1,0.1l0.3,0.6l-0.3,0.6l-0.3,0.6h-1.4l-0.3-0.6l-0.3-0.6l0.3-0.6l0.3-0.6h1.3
	l0.1,0.2l0.5-0.5l-0.1-0.2l-0.4-0.7l0.4-0.7l0.1-0.2l-0.5-0.5l-0.1,0.2h-1.3l-0.3-0.6l-0.3-0.6l0.3-0.6l0.3-0.6h1.3l0.3,0.6
	C13.6,11.6,13.9,12.2,13.9,12.2z M9.4,15.5l0.1,0.2h1.3l0.3-0.6l0.3-0.6L11.2,14l-0.3-0.6H9.6l-0.1,0.2l-0.9-0.9v-0.1l0.2-0.4
	l-0.2-0.4l-0.2-0.4h-1L7,11.8l-0.2,0.4L7,12.6L7.3,13h1l0.1-0.1l0.9,0.9l0,0.1l-0.3,0.6l0.3,0.6l0.1,0.1l-0.9,0.9l-0.1-0.1h-1
	l-0.2,0.4l-0.2,0.4l0.2,0.4l0.2,0.4h1l0.2-0.4l0.2-0.4l-0.2-0.4v-0.1L9.4,15.5L9.4,15.5z M10.9,10.2l-0.2,0.4h-1l-0.2-0.4L9.2,9.8
	l0.2-0.4L9.7,9h1l0.2,0.4l0.2,0.4L10.9,10.2L10.9,10.2z M8.2,7.7L8.1,7.9H7.5L7.4,7.7L7.2,7.4l0.1-0.2L7.5,7h0.6l0.1,0.3l0.1,0.2
	L8.2,7.7L8.2,7.7z M5.7,9.3l0.1,0.2L6,9.8L5.9,10l-0.1,0.3H5.1L5,10.1L4.9,9.8L5,9.6l0.1-0.2L5.7,9.3L5.7,9.3z M10.2,18.5h0.5
	l0.2,0.4l0.2,0.4l-0.2,0.4l-0.2,0.4h-1l-0.2-0.4l-0.2-0.4l0.2-0.4l0.2-0.4H10.2z M7.5,21.2h0.6l0.1,0.2l0.1,0.3l-0.1,0.2l-0.1,0.3
	H7.5l-0.1-0.3l-0.1-0.2l0.1-0.3C7.4,21.4,7.5,21.2,7.5,21.2z M5.7,19.8H5.1L5,19.5l-0.1-0.2L5,19l0.1-0.3h0.6L5.8,19L6,19.2
	l-0.1,0.2L5.7,19.8L5.7,19.8z M6.1,14.8L5.9,15H5.4l-0.1-0.2l-0.1-0.3l0.1-0.2L5.4,14h0.6l0.1,0.2l0.1,0.2L6.1,14.8z"/>
<path class="st0" d="M54.5,22.4h-4.7c-0.2,0-0.4-0.1-0.5-0.3l-2.4-3.6l-2.4,3.6c-0.1,0.2-0.3,0.3-0.5,0.3h-4.7
	c-0.4,0-0.5-0.3-0.3-0.5l5-7.2l-4.7-6.8c-0.2-0.3-0.1-0.6,0.3-0.6h4.7c0.2,0,0.4,0.1,0.6,0.3l2.1,3.2L49,7.7
	c0.1-0.2,0.3-0.3,0.5-0.3h4.7c0.4,0,0.5,0.3,0.3,0.6l-4.7,6.7l4.9,7.2C55,22.1,54.9,22.4,54.5,22.4z"/>
<path class="st0" d="M67.3,16.6h-8.7c0.4,1.4,1.7,2,3.5,2c1,0,1.9-0.3,2.7-0.8c0.3-0.2,0.5-0.2,0.7,0.1l1.8,1.8
	c0.2,0.2,0.2,0.4-0.1,0.7c-1.5,1.5-3.5,2.3-5.5,2.3c-4.2,0.2-7.8-3.1-8.1-7.3c0-0.2,0-0.3,0-0.5c-0.1-4.2,3.3-7.7,7.5-7.8
	c0.1,0,0.1,0,0.2,0c4.4,0,7.2,3.4,7.2,7.6C68.5,15.9,68.3,16.6,67.3,16.6L67.3,16.6z M58.6,13.4H64c-0.2-1.3-1.3-2.2-2.6-2.1
	C60,11.2,58.8,12.1,58.6,13.4z M70.3,0h4.1c0.2,0,0.4,0.2,0.5,0.4c0,0,0,0,0,0.1v21.5c0,0.2-0.2,0.4-0.4,0.5c0,0,0,0,0,0h-4.1
	c-0.2,0-0.4-0.2-0.5-0.4c0,0,0,0,0,0V0.5C69.9,0.2,70,0,70.3,0C70.3,0,70.3,0,70.3,0z M92.3,7.8v14.1c0,0.2-0.2,0.4-0.4,0.5
	c0,0,0,0,0,0h-3.5c-0.3,0-0.5-0.2-0.5-0.5l-0.2-1.2c-1,1.2-2.5,1.9-4.1,1.8c-4.2,0-7.3-3.4-7.3-7.7s3.1-7.8,7.3-7.8
	c1.6,0,3.1,0.7,4.1,2l0.2-1.3c0-0.2,0.2-0.5,0.4-0.5c0,0,0,0,0,0h3.5C92,7.3,92.2,7.5,92.3,7.8C92.3,7.8,92.3,7.8,92.3,7.8z
	 M87.2,14.8c0-1.7-1.3-3-3-3s-3,1.3-3,3s1.3,3,3,3S87.2,16.5,87.2,14.8z M104.1,16.9c0.2-0.2,0.5-0.2,0.7,0l2.5,2.4
	c0.2,0.2,0.2,0.5,0,0.6c0,0,0,0,0,0c-1.5,1.7-3.7,2.7-5.9,2.7c-4.3,0-7.7-3.4-7.7-7.7c0,0,0-0.1,0-0.1c0-4.2,3.4-7.7,7.6-7.7
	c0,0,0.1,0,0.1,0c2.2,0,4.4,1,5.8,2.7c0.2,0.2,0.2,0.4,0,0.6c0,0,0,0,0,0l-2.5,2.4c-0.2,0.2-0.4,0.1-0.7-0.1c-0.7-0.6-1.6-1-2.5-1
	c-1.6,0-3,1.2-3,2.8c0,0.1,0,0.1,0,0.2c-0.1,1.7,1.2,3.1,2.9,3.1c0,0,0.1,0,0.1,0C102.5,17.9,103.4,17.5,104.1,16.9z M107.8,14.9
	c0-4.4,3.5-7.9,7.8-7.9s7.9,3.5,7.9,7.8c0,4.4-3.5,7.9-7.8,7.9c0,0,0,0-0.1,0C111.3,22.7,107.8,19.2,107.8,14.9
	C107.8,14.9,107.8,14.9,107.8,14.9z M118.6,14.9c0-1.7-1.3-3-3-3s-3,1.3-3,3s1.3,3,3,3S118.6,16.5,118.6,14.9z M136.1,8.6l-1.1,2.9
	c-0.1,0.4-0.4,0.5-0.8,0.4c-0.4-0.2-0.8-0.2-1.3-0.3c-1.6-0.1-2.9,1.2-3,2.8c0,0.1,0,0.3,0,0.4v7.1c0,0.2-0.2,0.4-0.4,0.5
	c0,0,0,0,0,0h-4.1c-0.2,0-0.4-0.2-0.5-0.4c0,0,0,0,0,0V7.8c0-0.2,0.2-0.4,0.4-0.5c0,0,0,0,0.1,0h4c0.2,0,0.5,0.2,0.5,0.4
	c0,0,0,0,0,0l0.1,1.8c0.6-1.6,2.2-2.6,3.9-2.7c0.8,0,1.5,0.3,2.1,0.8C136.2,8,136.2,8.3,136.1,8.6L136.1,8.6z M149.4,16.6h-8.6
	c0.4,1.4,1.7,2,3.5,2c1,0,1.9-0.3,2.7-0.8c0.3-0.2,0.5-0.2,0.7,0.1l1.8,1.8c0.2,0.2,0.2,0.4-0.1,0.7c-1.5,1.5-3.5,2.3-5.6,2.3
	c-4.2,0.2-7.9-3.1-8.1-7.3c0-0.2,0-0.3,0-0.5c-0.1-4.2,3.3-7.7,7.5-7.8c0.1,0,0.1,0,0.2,0c4.4,0,7.2,3.4,7.2,7.6
	C150.6,15.9,150.4,16.6,149.4,16.6z M140.6,13.4h5.4c-0.2-1.3-1.3-2.2-2.6-2.1C142.1,11.2,140.9,12.1,140.6,13.4z"/>
</svg>
