<?xml version="1.0" encoding="utf-8"?>
<!-- Generator: Adobe Illustrator 22.1.0, SVG Export Plug-In . SVG Version: 6.00 Build 0)  -->
<svg version="1.1" id="Layer_1" xmlns="http://www.w3.org/2000/svg" xmlns:xlink="http://www.w3.org/1999/xlink" x="0px" y="0px"
	 viewBox="0 0 299.9 300" style="enable-background:new 0 0 299.9 300;" xml:space="preserve">
<style type="text/css">
	.st0{fill:#939393;}
</style>
<title>xelacore_iconsfinal</title>
<path class="st0" d="M298.7,154.2c0.1-0.2,0.2-0.3,0.3-0.5c0.1-0.1,0.1-0.3,0.2-0.4c0.1-0.2,0.1-0.3,0.2-0.5s0.1-0.4,0.2-0.6
	l0.1-0.5c0-0.2,0.1-0.3,0.1-0.5c0-0.2,0.1-0.4,0.1-0.6c0-0.2,0-0.4,0-0.5s0-0.2,0-0.3s0-0.2,0-0.3s0-0.3,0-0.5c0-0.2,0-0.4-0.1-0.6
	c0-0.2-0.1-0.3-0.1-0.5l-0.1-0.5c-0.1-0.2-0.1-0.4-0.2-0.6s-0.1-0.3-0.2-0.5c-0.1-0.1-0.1-0.3-0.2-0.4c-0.1-0.2-0.2-0.3-0.3-0.5
	s-0.2-0.3-0.3-0.4l-0.3-0.4c-0.1-0.1-0.1-0.2-0.2-0.2l-18-20.5l8.8-25.8c0-0.1,0-0.2,0.1-0.3s0.1-0.3,0.1-0.5c0-0.2,0.1-0.4,0.1-0.5
	c0-0.2,0.1-0.4,0.1-0.5c0-0.2,0-0.3,0-0.5c0-0.2,0-0.4,0-0.5c0-0.2,0-0.4,0-0.6l-0.1-0.5c0-0.2-0.1-0.4-0.1-0.5s-0.1-0.4-0.1-0.6
	l-0.2-0.5c0-0.1,0-0.2-0.1-0.3c0-0.1-0.1-0.2-0.1-0.2c-0.1-0.2-0.1-0.3-0.2-0.5c-0.1-0.2-0.2-0.3-0.3-0.5c-0.1-0.1-0.2-0.3-0.3-0.4
	s-0.2-0.3-0.3-0.4s-0.3-0.3-0.4-0.4l-0.4-0.4l-0.4-0.3c-0.1-0.1-0.3-0.2-0.5-0.4c-0.1-0.1-0.3-0.2-0.4-0.3c-0.1-0.1-0.3-0.2-0.4-0.3
	s-0.2-0.1-0.3-0.2l-24.5-12.1l-1.8-27.2c0-0.1,0-0.2,0-0.3s0-0.4-0.1-0.5c0-0.2-0.1-0.3-0.1-0.5c0-0.2-0.1-0.4-0.2-0.6
	c0-0.2-0.1-0.3-0.1-0.4c0-0.1-0.1-0.3-0.2-0.4s-0.2-0.4-0.3-0.6s-0.1-0.2-0.2-0.4l-0.2-0.3c-0.1-0.2-0.3-0.4-0.5-0.6l-0.3-0.3
	c-0.1-0.1-0.1-0.1-0.1-0.2l-0.1-0.1c-0.2-0.2-0.4-0.4-0.6-0.5c-0.1-0.1-0.2-0.2-0.4-0.3l0-0.1l-0.3-0.2c-0.2-0.1-0.4-0.2-0.6-0.4
	l-0.4-0.2l0,0l-0.4-0.2c-0.2-0.1-0.4-0.1-0.6-0.2l-0.5-0.1l-0.4-0.1l-0.6-0.1l-0.3-0.1l-27.2-1.8l-12.1-24.5c0-0.1-0.1-0.2-0.2-0.3
	s-0.1-0.3-0.2-0.4s-0.2-0.3-0.3-0.4c-0.1-0.2-0.2-0.3-0.4-0.5l-0.3-0.3c-0.1-0.1-0.2-0.3-0.4-0.4c-0.1-0.1-0.3-0.3-0.5-0.4
	c-0.1-0.1-0.2-0.2-0.4-0.3c-0.1-0.1-0.3-0.2-0.5-0.3c-0.2-0.1-0.3-0.2-0.5-0.3l-0.5-0.2c-0.1,0-0.1-0.1-0.2-0.1
	c-0.1,0-0.2-0.1-0.3-0.1l-0.5-0.2l-0.6-0.2l-0.5-0.1h-0.4h-0.6c-0.2,0-0.4,0-0.6,0h-0.4l-0.5,0.1l-0.6,0.1l-0.5,0.1
	c-0.1,0-0.2,0-0.3,0.1L175.8,20L155.3,2c-0.1-0.1-0.1-0.1-0.2-0.2c-0.1-0.1-0.3-0.2-0.4-0.3c-0.1-0.1-0.3-0.2-0.4-0.3l-0.5-0.3
	l-0.4-0.2c-0.1-0.1-0.3-0.1-0.5-0.2l-0.6-0.2l-0.5-0.1c-0.2,0-0.3-0.1-0.5-0.1c-0.2,0-0.4-0.1-0.6-0.1h-0.6h-0.2c-0.1,0-0.2,0-0.3,0
	h-0.5c-0.2,0-0.4,0-0.6,0.1l-0.5,0.1l-0.4,0.1c-0.2,0.1-0.4,0.1-0.6,0.2c-0.2,0.1-0.3,0.1-0.5,0.2l-0.4,0.2l-0.5,0.3l-0.4,0.3
	c-0.1,0.1-0.3,0.2-0.4,0.3c-0.1,0.1-0.2,0.1-0.2,0.2l-20.5,18l-25.8-8.8c-0.1,0-0.2,0-0.3-0.1L97.5,11l-0.6-0.1l-0.6-0.1h-0.4h-0.6
	h-0.6h-0.4l-0.6,0.1l-0.6,0.2l-0.4,0.1c-0.1,0-0.2,0-0.3,0.1c-0.1,0-0.1,0.1-0.2,0.1c-0.2,0.1-0.3,0.1-0.5,0.2l-0.4,0.3
	c-0.2,0.1-0.3,0.2-0.5,0.3s-0.3,0.2-0.4,0.3c-0.1,0.1-0.3,0.2-0.4,0.4c-0.1,0.1-0.3,0.2-0.4,0.4l-0.3,0.4c-0.1,0.1-0.2,0.3-0.3,0.4
	l-0.3,0.4L88.5,15c-0.1,0.1-0.1,0.2-0.2,0.3L76.3,39.7l-27.2,1.8c-0.1,0-0.2,0.1-0.3,0.1c-0.2,0-0.3,0-0.5,0.1
	c-0.2,0-0.3,0.1-0.5,0.1l-0.6,0.2c-0.2,0.1-0.3,0.1-0.5,0.1l-0.4,0.2l-0.5,0.3l-0.5,0.3c-0.1,0.1-0.2,0.2-0.3,0.2l-0.4,0.3
	c-0.2,0.1-0.4,0.3-0.5,0.5l-0.1,0.1c-0.1,0.1-0.1,0.1-0.1,0.2s-0.2,0.2-0.3,0.3s-0.3,0.4-0.4,0.6c-0.1,0.1-0.2,0.2-0.2,0.3
	c-0.1,0.1-0.1,0.2-0.2,0.4c-0.1,0.2-0.2,0.4-0.3,0.6c-0.1,0.1-0.1,0.3-0.2,0.4s-0.1,0.3-0.2,0.4s-0.1,0.4-0.1,0.6
	c0,0.2-0.1,0.3-0.1,0.5c0,0.2-0.1,0.4-0.1,0.5s0,0.2-0.1,0.3l-1.8,27.2L15.3,88.3c-0.1,0-0.2,0.1-0.3,0.2l-0.4,0.2L14.1,89l-0.4,0.4
	l-0.3,0.3c-0.1,0.1-0.3,0.3-0.4,0.4s-0.3,0.3-0.4,0.4l-0.3,0.4c-0.1,0.1-0.2,0.3-0.3,0.4c-0.1,0.2-0.2,0.3-0.3,0.5
	c-0.1,0.1-0.2,0.3-0.2,0.5c0,0.1-0.1,0.2-0.1,0.2c0,0.1-0.1,0.2-0.1,0.3l-0.2,0.5c0,0.2-0.1,0.4-0.1,0.6s-0.1,0.3-0.1,0.5l-0.1,0.5
	c0,0.2,0,0.4,0,0.6c0,0.2,0,0.4,0,0.5c0,0.2,0,0.3,0,0.5c0,0.2,0,0.4,0.1,0.5c0,0.2,0.1,0.4,0.1,0.5c0,0.2,0.1,0.4,0.1,0.5
	s0,0.2,0.1,0.3l8.8,25.9L2,144.6c-0.1,0.1-0.1,0.1-0.2,0.2l-0.3,0.4c-0.1,0.1-0.2,0.3-0.3,0.4S1,146,0.9,146.2
	c-0.1,0.1-0.1,0.3-0.2,0.4c-0.1,0.2-0.1,0.3-0.2,0.5s-0.1,0.4-0.2,0.6l-0.1,0.5c0,0.2-0.1,0.3-0.1,0.5c0,0.2-0.1,0.4-0.1,0.6
	c0,0.2,0,0.4,0,0.5s0,0.2,0,0.3s0,0.2,0,0.3s0,0.3,0,0.5c0,0.2,0,0.4,0.1,0.6c0,0.2,0.1,0.3,0.1,0.5l0.1,0.5
	c0.1,0.2,0.1,0.4,0.2,0.6s0.1,0.3,0.2,0.5c0.1,0.1,0.1,0.3,0.2,0.4c0.1,0.2,0.2,0.3,0.3,0.5s0.2,0.3,0.3,0.4l0.3,0.4
	c0.1,0.1,0.1,0.2,0.2,0.2l18,20.5l-8.8,25.8c0,0.1,0,0.2-0.1,0.3s-0.1,0.3-0.1,0.5c0,0.2-0.1,0.4-0.1,0.5c0,0.2-0.1,0.4-0.1,0.5
	c0,0.2,0,0.3,0,0.5c0,0.2,0,0.4,0,0.5c0,0.2,0,0.4,0,0.6l0.1,0.5c0,0.2,0.1,0.4,0.1,0.5s0.1,0.4,0.1,0.5l0.2,0.5
	c0,0.1,0,0.2,0.1,0.3c0,0.1,0.1,0.1,0.1,0.2c0.1,0.2,0.2,0.4,0.3,0.5c0.1,0.2,0.3,0.5,0.4,0.7c0.1,0.2,0.3,0.4,0.4,0.6
	c0,0.1,0.1,0.1,0.1,0.1c0.1,0.2,0.3,0.3,0.4,0.4c0.2,0.2,0.4,0.4,0.6,0.5s0.4,0.3,0.6,0.4l0.3,0.2c0.2,0.1,0.3,0.2,0.5,0.3
	c0.1,0,0.2,0.1,0.3,0.2l24.5,12.1l1.8,27.2c0,0.1,0,0.2,0.1,0.3s0,0.4,0.1,0.5s0.1,0.3,0.1,0.5l0.1,0.6c0.1,0.2,0.1,0.3,0.2,0.5
	l0.2,0.4l0.3,0.5c0.1,0.2,0.2,0.3,0.3,0.5l0.2,0.3c0.1,0.2,0.2,0.3,0.4,0.5c0.1,0.2,0.3,0.3,0.4,0.5s0.1,0.1,0.1,0.2l0.1,0.1
	c0.1,0.1,0.3,0.2,0.4,0.4s0.4,0.3,0.6,0.4l0.3,0.2c0.1,0.1,0.3,0.1,0.4,0.2s0.4,0.2,0.7,0.4l0.3,0.1c0.1,0.1,0.3,0.1,0.5,0.1
	c0.2,0.1,0.5,0.2,0.7,0.2c0.1,0,0.2,0.1,0.3,0.1h0.2c0.1,0,0.3,0,0.4,0c0.2,0,0.3,0.1,0.5,0.1l27.2,1.8l12.1,24.5
	c0,0.1,0.1,0.1,0.1,0.2c0.1,0.2,0.2,0.3,0.3,0.5s0.3,0.4,0.5,0.7c0.1,0.2,0.3,0.3,0.4,0.5l0.1,0.1c0.2,0.2,0.4,0.3,0.6,0.5
	s0.4,0.3,0.6,0.5l0.4,0.3l0.4,0.2c0.2,0.1,0.4,0.2,0.6,0.3c0.1,0,0.2,0.1,0.2,0.1c0.2,0.1,0.3,0.1,0.5,0.1c0.1,0,0.2,0.1,0.3,0.1
	h0.1c0.1,0,0.2,0,0.3,0.1c0.3,0.1,0.6,0.1,0.9,0.1c0.2,0,0.4,0.1,0.7,0.1h0.3h0.1c0.1,0,0.2,0,0.4,0c0.3,0,0.7-0.1,1-0.1
	c0.2,0,0.4-0.1,0.7-0.1l0.4-0.1h0.2l25.8-8.7l20.5,18c0.1,0.1,0.2,0.1,0.3,0.2s0.2,0.2,0.4,0.3l0.3,0.2c0.2,0.1,0.5,0.3,0.7,0.4
	c0.1,0.1,0.3,0.1,0.4,0.2l0.2,0.1c0.3,0.1,0.6,0.2,0.9,0.3h0.1l0.3,0.1h0.1c0.5,0.1,1,0.2,1.5,0.2l0,0c0.5,0,1-0.1,1.5-0.1h0.1
	l0.2-0.1l0.2-0.1c0.3-0.1,0.6-0.2,0.9-0.3l0.2-0.1c0.1-0.1,0.3-0.1,0.4-0.2c0.3-0.1,0.5-0.3,0.7-0.4c0.1-0.1,0.2-0.1,0.3-0.2
	c0.1-0.1,0.2-0.2,0.4-0.3s0.2-0.1,0.3-0.2l20.5-18l25.8,8.8h0.2l0.4,0.1c0.2,0.1,0.4,0.1,0.7,0.1c0.3,0.1,0.7,0.1,1,0.1
	c0.1,0,0.3,0,0.4,0h0.1h0.3l0.7-0.1c0.3,0,0.6-0.1,0.9-0.1c0.1,0,0.2,0,0.3-0.1l0.2-0.1l0.2-0.1c0.2-0.1,0.4-0.1,0.5-0.2l0.3-0.1
	l0.6-0.3c0.1-0.1,0.3-0.1,0.4-0.2l0.4-0.3c0.2-0.1,0.4-0.3,0.5-0.5s0.4-0.3,0.6-0.5l0.1-0.1c0.1-0.1,0.2-0.3,0.4-0.5
	s0.4-0.5,0.5-0.7s0.2-0.3,0.3-0.5c0-0.1,0.1-0.1,0.1-0.2l12.1-24.5l27.2-1.8c0.2,0,0.3,0,0.5-0.1c0.1,0,0.3,0,0.4,0h0.2
	c0.1,0,0.2-0.1,0.3-0.1c0.2-0.1,0.5-0.1,0.7-0.2c0.1,0,0.3-0.1,0.5-0.1l0.3-0.1c0.2-0.1,0.5-0.2,0.7-0.4s0.3-0.1,0.4-0.2l0.3-0.2
	c0.2-0.1,0.4-0.3,0.6-0.4s0.3-0.2,0.4-0.4l0.1-0.1c0-0.1,0.1-0.1,0.1-0.2s0.3-0.3,0.4-0.5c0.1-0.2,0.2-0.3,0.4-0.5l0.2-0.3
	c0.1-0.1,0.2-0.3,0.3-0.5l0.3-0.5l0.2-0.4c0.1-0.2,0.1-0.3,0.2-0.5l0.1-0.6c0-0.2,0.1-0.3,0.1-0.5s0-0.4,0.1-0.5s0-0.2,0-0.3
	l1.8-27.2l24.5-12.1c0.1,0,0.2-0.1,0.3-0.2c0.2-0.1,0.3-0.2,0.5-0.3l0.3-0.2c0.2-0.1,0.4-0.3,0.5-0.4s0.4-0.4,0.6-0.5
	c0.2-0.1,0.3-0.3,0.4-0.4c0,0,0.1-0.1,0.1-0.1c0.1-0.2,0.3-0.4,0.4-0.6c0.1-0.2,0.3-0.4,0.4-0.7c0.1-0.2,0.2-0.3,0.3-0.5
	c0-0.1,0.1-0.1,0.1-0.2c0-0.1,0.1-0.2,0.1-0.3l0.2-0.5c0-0.2,0.1-0.4,0.1-0.5s0.1-0.3,0.1-0.5l0.1-0.5c0-0.2,0-0.4,0-0.6
	c0-0.2,0-0.4,0-0.5c0-0.2,0-0.3,0-0.5c0-0.2,0-0.4-0.1-0.5c0-0.2-0.1-0.4-0.1-0.5c0-0.2-0.1-0.4-0.1-0.5s0-0.2-0.1-0.3l-8.8-25.8
	l18-20.5c0.1-0.1,0.1-0.1,0.2-0.2l0.3-0.4C298.5,154.5,298.6,154.4,298.7,154.2z M105,168.6c-10.3-24.8,1.6-53.3,26.4-63.5
	c24.8-10.3,53.3,1.6,63.5,26.4c10.3,24.8-1.5,53.3-26.4,63.5C143.7,205.2,115.3,193.4,105,168.6z M85.6,141.8H26l12.4-14.1l-6-17.8
	l55.2,22.8C86.6,135.8,86,138.8,85.6,141.8L85.6,141.8z M85.6,158.1c0.4,3,1,6,1.8,9L32.3,190l6-17.8L26,158.1H85.6z M214.3,141.8
	c-0.4-3-1-6-1.8-9l55.1-22.9l-6,17.8l12.3,14.1L214.3,141.8z M214.3,158.1H274l-12.4,14.1l6,17.8l-55.1-22.8
	C213.3,164.1,213.9,161.1,214.3,158.1z M261.4,95l-55.2,22.8c-1.5-2.7-3.2-5.2-5.1-7.6L243.4,68l1.2,18.7L261.4,95z M232,56.5
	l-42.2,42.2c-2.4-1.9-5-3.6-7.6-5.1l22.8-55.2l8.3,16.8L232,56.5z M190,32.3l-22.8,55.1c-3-0.8-6-1.4-9-1.8V26l14.1,12.4L190,32.3z
	 M127.8,38.3L141.8,26v59.7c-3,0.4-6,1-9,1.8L110,32.3L127.8,38.3z M86.8,55.3l8.3-16.8l22.8,55.1c-2.7,1.5-5.2,3.2-7.6,5.1
	L68.1,56.5L86.8,55.3z M55.4,86.7L56.6,68l42.2,42.2c-1.9,2.4-3.6,5-5.1,7.6L38.5,95L55.4,86.7z M38.5,204.9l55.2-22.8
	c1.5,2.7,3.2,5.2,5.1,7.6L56.5,232l-1.2-18.7L38.5,204.9z M68,243.4l42.2-42.2c2.4,1.9,5,3.6,7.6,5.1L95,261.4l-8.3-16.8L68,243.4z
	 M110,267.6l22.8-55.1c3,0.8,6,1.4,9,1.8V274l-14.1-12.4L110,267.6z M172.2,261.6L158.1,274v-59.7c3-0.4,6-1,9-1.8l22.9,55.1
	L172.2,261.6z M213.2,244.6l-8.3,16.8l-22.8-55.2c2.7-1.5,5.2-3.2,7.6-5.1l42.2,42.2L213.2,244.6z M244.6,213.2l-1.2,18.8
	l-42.2-42.2c1.9-2.4,3.6-5,5.1-7.6l55.1,22.8L244.6,213.2z"/>
</svg>
