<svg id="Layer_1" data-name="Layer 1" xmlns="http://www.w3.org/2000/svg" viewBox="0 0 155.05 29.83"><defs><style>.cls-1,.cls-2{fill:#fff;}.cls-1{fill-rule:evenodd;}</style></defs><title>Xelacore_logo</title><path class="cls-1" d="M16.18,9.9l.58-.33.15-.09.48.49-.28.16v1.66l.72.42.72.41.72-.41.72-.42V10.13L19.71,10l.48-.49.15.09.58.33.57-.33.58-.33V7.91l-.58-.33-.57-.34-.58.34-.57.33V9.24l.2.11-.48.49-.22-.12-.72-.42-.72.42-.22.12-.48-.49.2-.11V7.91l-.57-.33-.58-.34-.57.34L15,7.91V9.24l.58.33.57.33ZM19.5,5.42l.2.12V6.87l-.57.33-.58.33L18,7.2l-.58-.33V5.54l.2-.12-.92-.93-.08,0-.42.24-.41-.24-.42-.23v-1l.42-.24.41-.24.42.24.41.24v1l-.11.06.92.94L18,5.21l.57-.33.58.33.15.09.92-.94-.11-.06v-1l.41-.24.42-.24.41.24.42.24v1l-.42.23-.41.24-.42-.24-.07,0-.93.93ZM14.23,6.9l.41-.24v-1l-.41-.24-.42-.24-.41.24L13,5.71v1l.41.24.41.24.42-.24ZM11.69,4.22l.25-.14V3.51l-.25-.14-.24-.14-.25.14L11,3.51v.57l.24.14.25.14.24-.14Zm1.64-2.51.24.14.24.14.25-.14.24-.14V1.15L14.06,1,13.81.86,13.57,1l-.24.14v.56Zm9.13,4.47v.48l.41.24.42.24.41-.24.42-.24v-1l-.42-.24-.41-.24-.42.24-.41.24v.47Zm2.71-2.67v.57l.24.14.24.14.25-.14.24-.14V3.51l-.24-.14-.25-.14-.24.14-.24.14Zm-1.4-1.8V1.15L23.53,1,23.29.86,23,1l-.24.14v.56l.24.14.25.14.24-.14.24-.14Zm-5,.37L19,1.94V1.37l-.25-.14-.24-.14-.24.14-.25.14v.57l.25.14.24.14Z"/><path class="cls-1" d="M16.18,19.19l.58.33.15.09.48-.49L17.11,19V17.3l.72-.42.72-.41.72.41.72.42V19l-.28.16.48.49.15-.09.58-.33.57.33.58.33v1.33l-.58.33-.57.33-.58-.33-.57-.33V19.85l.2-.11-.48-.49-.22.12-.72.42-.72-.42-.22-.12-.48.49.2.11v1.33l-.57.33-.58.33-.57-.33L15,21.18V19.85l.58-.33.57-.33Zm3.32,4.47.2-.11V22.22l-.57-.33-.58-.33-.57.33-.58.33v1.33l.2.11-.92.94-.08-.05-.42-.23-.41.23-.42.24v1l.42.24.41.24L16.6,26l.41-.24v-1l-.11-.06.92-.94.16.09.57.33.58-.33.15-.09.92.94-.11.06v1l.41.24.42.24.41-.24.42-.24v-1l-.42-.24-.41-.23-.42.23-.07.05-.93-.94Zm-5.27-1.47.41.24v.95l-.41.24-.42.24-.41-.24L13,23.38v-.95l.41-.24.41-.24.42.24Zm-2.54,2.68.25.14v.56l-.25.15-.24.14-.25-.14L11,25.57V25l.24-.14.25-.14.24.14Zm1.64,2.51.24-.14.24-.14.25.14.24.14v.56l-.24.14-.25.14-.24-.14-.24-.14v-.56Zm9.13-4.48v-.47l.41-.24.42-.24.41.24.42.24v.95l-.42.24-.41.24-.42-.24-.41-.24V22.9Zm2.71,2.67V25l.24-.14.24-.14.25.14.24.14v.56l-.24.15-.25.14-.24-.14-.24-.15Zm-1.4,1.81v.56l-.24.14-.24.14L23,28.08l-.24-.14v-.56l.24-.14.25-.14.24.14.24.14Zm-5-.37.25.14v.57l-.25.14-.24.14-.24-.14-.25-.14v-.57l.25-.14.24-.14Z"/><path class="cls-1" d="M23.19,12.18l.34.57.08.15-.48.49L23,13.11H21.3l-.41.72-.42.71.42.72.41.72H23l.17-.28.48.49-.08.15-.34.57.34.58.33.57h1.33l.33-.57.33-.58-.33-.57-.33-.58H23.86l-.12.2-.49-.48.13-.22.41-.72-.41-.71-.13-.22.49-.49.12.21h1.33l.33-.58.33-.57-.33-.58L25.19,11H23.86l-.33.57-.34.58Zm4.48,3.31-.12.2H26.23l-.34-.57-.33-.58.33-.57.34-.58h1.32l.12.21.94-.93-.05-.08-.24-.41.24-.42.24-.41h1l.24.41.24.42-.24.41-.24.42h-1l-.07-.12-.93.93.09.15.33.57-.33.58-.09.15.93.93.07-.12h1l.24.42.24.41-.24.42-.24.41h-1l-.24-.41-.24-.42.24-.41.05-.08-.94-.93Zm-1.48-5.27.24.42h1l.24-.42.24-.41-.24-.42L27.39,9h-1l-.24.41L26,9.81l.24.41Zm2.69-2.54.14.25h.56l.14-.25.14-.24-.14-.24L29.58,7H29l-.14.25-.15.24.15.24Zm2.5,1.64-.14.24-.14.25.14.24.14.25H32l.14-.25.14-.24-.14-.25L32,9.32h-.57Zm-4.47,9.13h-.48l-.24.42-.24.41.24.41.24.42h1l.24-.42.24-.41-.24-.41-.24-.42Zm2.67,2.71H29l-.14.24-.15.25.15.24.14.25h.56l.14-.25.14-.24-.14-.25-.14-.24Zm1.8-1.39H32l.14-.25.14-.24L32.09,19,32,18.79h-.57l-.14.25-.14.24.14.24.14.25Zm-.36-5,.14.24h.56l.14-.24.14-.25-.14-.24-.14-.24h-.56L31,14.3l-.14.24Z"/><path class="cls-1" d="M13.91,12.18l-.34.57-.08.15.49.49.16-.28H15.8l.41.72.42.71-.42.72L15.8,16H14.14L14,15.7l-.49.49.08.15.34.57-.34.58-.33.57H11.91l-.33-.57-.33-.58.33-.57.33-.58h1.33l.12.2.49-.48-.13-.22-.41-.72.41-.71.13-.22-.49-.49-.12.21H11.91l-.33-.58-.33-.57.33-.58.33-.57h1.33l.33.57.34.58ZM9.43,15.49l.12.2h1.33l.33-.57.33-.58L11.21,14l-.33-.58H9.55l-.12.21-.93-.93,0-.08.24-.41-.24-.42-.24-.41h-1l-.24.41-.23.42.23.41.24.42h1l.07-.12.93.93L9.22,14l-.34.57.34.58.08.15-.93.93-.07-.12h-1l-.24.42-.23.41.23.42.24.41h1l.24-.41.24-.42-.24-.41,0-.08.93-.93Zm1.48-5.27-.24.42h-1l-.24-.42-.24-.41.24-.42L9.71,9h1l.24.41.24.42-.24.41ZM8.23,7.68l-.15.25H7.52l-.14-.25-.14-.24.14-.24L7.52,7h.56l.15.25.14.24-.14.24ZM5.72,9.32l.14.24L6,9.81l-.14.24-.14.25H5.15L5,10.05l-.14-.24L5,9.56l.14-.24h.57Zm4.47,9.13h.48l.24.42.24.41-.24.41-.24.42h-1l-.24-.42-.24-.41.24-.41.24-.42ZM7.52,21.16h.56l.15.24.14.25-.14.24-.15.25H7.52l-.14-.25-.14-.24.14-.25.14-.24Zm-1.8-1.39H5.15L5,19.52l-.14-.24L5,19l.14-.25h.57l.14.25.14.24-.14.24-.14.25Zm.36-5L5.94,15H5.38l-.14-.24-.14-.25.14-.24.14-.24h.56l.14.24.14.24Z"/><path class="cls-2" d="M54.48,22.39h-4.7a.65.65,0,0,1-.55-.31l-2.36-3.62-2.36,3.62a.61.61,0,0,1-.55.31H39.27c-.37,0-.53-.25-.31-.55l5-7.18-4.7-6.75c-.24-.3-.06-.55.31-.55h4.69a.62.62,0,0,1,.56.31l2.08,3.22L49,7.67a.6.6,0,0,1,.55-.31h4.69c.37,0,.52.25.31.55l-4.69,6.75,4.93,7.18C55,22.14,54.85,22.39,54.48,22.39Z"/><path class="cls-2" d="M67.33,16.59H58.68c.43,1.35,1.65,2,3.46,2a4.89,4.89,0,0,0,2.7-.8c.31-.19.49-.16.68.06l1.78,1.75c.21.21.18.43-.07.67a7.94,7.94,0,0,1-5.55,2.3,7.69,7.69,0,0,1-8.06-7.79,7.62,7.62,0,0,1,7.67-7.76c4.38,0,7.2,3.44,7.2,7.55C68.49,15.92,68.31,16.59,67.33,16.59Zm-8.74-3.16H64a2.51,2.51,0,0,0-2.63-2.11A2.6,2.6,0,0,0,58.59,13.43Z"/><path class="cls-2" d="M70.33,0h4.14a.43.43,0,0,1,.46.46V21.93a.44.44,0,0,1-.46.46H70.33a.44.44,0,0,1-.46-.46V.46A.44.44,0,0,1,70.33,0Z"/><path class="cls-2" d="M92.26,7.82V21.93a.44.44,0,0,1-.46.46H88.3a.46.46,0,0,1-.46-.46l-.15-1.17a5.07,5.07,0,0,1-4.11,1.84c-4.2,0-7.27-3.37-7.27-7.7s3.07-7.85,7.27-7.85a5.07,5.07,0,0,1,4.11,2l.15-1.26a.45.45,0,0,1,.46-.46h3.5A.43.43,0,0,1,92.26,7.82Zm-5.09,7a3,3,0,1,0-6,0,3,3,0,1,0,6,0Z"/><path class="cls-2" d="M104.1,16.87c.24-.19.46-.22.67,0l2.52,2.42a.45.45,0,0,1,0,.64,7.84,7.84,0,0,1-5.92,2.67,7.72,7.72,0,0,1-7.73-7.85,7.65,7.65,0,0,1,7.73-7.7,7.76,7.76,0,0,1,5.82,2.67.44.44,0,0,1,0,.65l-2.51,2.45c-.22.21-.43.15-.68-.06a3.68,3.68,0,0,0-2.48-1,2.92,2.92,0,0,0-3,3,3,3,0,0,0,3,3.13A3.87,3.87,0,0,0,104.1,16.87Z"/><path class="cls-2" d="M107.75,14.87a7.88,7.88,0,1,1,7.88,7.82A7.83,7.83,0,0,1,107.75,14.87Zm10.88,0a3,3,0,1,0-6,0,3,3,0,1,0,6,0Z"/><path class="cls-2" d="M136.11,8.56,135,11.5c-.12.4-.4.46-.77.37a3.59,3.59,0,0,0-1.29-.25,2.9,2.9,0,0,0-3,3.19v7.12a.44.44,0,0,1-.46.46h-4.14a.44.44,0,0,1-.46-.46V7.82a.43.43,0,0,1,.46-.46h4a.45.45,0,0,1,.46.46l.12,1.84A4.23,4.23,0,0,1,133.81,7a3.2,3.2,0,0,1,2.12.8A.6.6,0,0,1,136.11,8.56Z"/><path class="cls-2" d="M149.39,16.59h-8.65c.43,1.35,1.66,2,3.47,2a4.89,4.89,0,0,0,2.7-.8c.31-.19.49-.16.67.06l1.78,1.75c.22.21.19.43-.06.67a7.94,7.94,0,0,1-5.55,2.3,7.7,7.7,0,0,1-8.07-7.79,7.62,7.62,0,0,1,7.67-7.76c4.39,0,7.21,3.44,7.21,7.55C150.56,15.92,150.37,16.59,149.39,16.59Zm-8.74-3.16h5.4a2.52,2.52,0,0,0-2.64-2.11A2.6,2.6,0,0,0,140.65,13.43Z"/></svg>