<svg id="Layer_1" data-name="Layer 1" xmlns="http://www.w3.org/2000/svg" viewBox="0 0 500 500"><defs><style>.cls-1{fill:#fff;}</style></defs><title>xelacore_iconsfinal</title><path class="cls-1" d="M250,100c-82.71,0-150,67.29-150,150s67.29,150,150,150,150-67.29,150-150S332.71,100,250,100Zm0,16.22c67,0,122.71,49.57,132.31,114-22-17.64-66.7-45.06-132.31-45.06S139.67,212.56,117.69,230.2C127.29,165.79,183,116.22,250,116.22ZM201.35,250A48.65,48.65,0,1,1,250,298.65,48.71,48.71,0,0,1,201.35,250Zm0,42.79c-42.73-10.55-70.67-32.63-81.76-42.81,11.07-10.2,38.94-32.3,81.81-42.82a64.48,64.48,0,0,0-.05,85.63ZM314.86,250a64.49,64.49,0,0,0-16.24-42.79c42.72,10.55,70.66,32.63,81.76,42.81-11.07,10.2-38.94,32.3-81.81,42.82A64.47,64.47,0,0,0,314.86,250ZM250,383.78c-67,0-122.71-49.57-132.31-114,22,17.64,66.7,45.06,132.31,45.06s110.33-27.42,132.31-45.06C372.71,334.21,317,383.78,250,383.78Z"/></svg>