<?xml version="1.0" encoding="utf-8"?>
<!-- Generator: Adobe Illustrator 22.1.0, SVG Export Plug-In . SVG Version: 6.00 Build 0)  -->
<svg version="1.1" id="Layer_1" xmlns="http://www.w3.org/2000/svg" xmlns:xlink="http://www.w3.org/1999/xlink" x="0px" y="0px"
	 viewBox="0 0 300 300" style="enable-background:new 0 0 300 300;" xml:space="preserve">
<style type="text/css">
	.st0{fill:#939393;}
</style>
<title>xelacore_iconsfinal</title>
<path class="st0" d="M150,0C67.3,0,0,67.3,0,150s67.3,150,150,150s150-67.3,150-150S232.7,0,150,0z M150,16.2
	c67,0,122.7,49.6,132.3,114c-22-17.6-66.7-45.1-132.3-45.1s-110.3,27.4-132.3,45C27.3,65.8,83,16.2,150,16.2z M101.4,150
	c0-26.9,21.8-48.7,48.6-48.7s48.6,21.8,48.7,48.6c0,26.9-21.8,48.7-48.7,48.7h0C123.1,198.6,101.4,176.9,101.4,150z M101.4,192.8
	c-42.7-10.5-70.7-32.6-81.8-42.8c11.1-10.2,38.9-32.3,81.8-42.8C79.7,131.6,79.7,168.4,101.4,192.8L101.4,192.8z M214.9,150
	c0-15.8-5.8-31-16.2-42.8c42.7,10.6,70.7,32.6,81.8,42.8c-11.1,10.2-38.9,32.3-81.8,42.8C209.1,181,214.9,165.8,214.9,150z
	 M150,283.8c-67,0-122.7-49.6-132.3-114c22,17.6,66.7,45.1,132.3,45.1s110.3-27.4,132.3-45.1C272.7,234.2,217,283.8,150,283.8z"/>
</svg>
