<svg id="Layer_1" data-name="Layer 1" xmlns="http://www.w3.org/2000/svg" viewBox="0 0 500 500"><defs><style>.cls-1{fill:#fff;}</style></defs><title>xelacore_iconsfinal</title><path class="cls-1" d="M375.33,225.33a24.69,24.69,0,0,0-23.27,16.56H314.3a64.46,64.46,0,0,0-13.12-31.6L328,183.51a24.66,24.66,0,1,0-11.47-11.46l-26.78,26.77a64.46,64.46,0,0,0-31.6-13.12V148a24.67,24.67,0,1,0-16.22,0V185.7a64.46,64.46,0,0,0-31.6,13.12l-26.78-26.77a24.94,24.94,0,1,0-11.46,11.46l26.77,26.78a64.46,64.46,0,0,0-13.12,31.6H147.94a24.67,24.67,0,1,0,0,16.22H185.7a64.38,64.38,0,0,0,13.13,31.6l-26.72,26.72a24.65,24.65,0,1,0,6.71,39.64h0A24.64,24.64,0,0,0,183.51,328l26.78-26.78a64.5,64.5,0,0,0,31.6,13.12v37.76a24.67,24.67,0,1,0,16.22,0V314.3a64.5,64.5,0,0,0,31.6-13.12L316.49,328a24.45,24.45,0,1,0,11.4-11.54l-26.71-26.71a64.46,64.46,0,0,0,13.12-31.6h37.76a24.66,24.66,0,1,0,23.27-32.78ZM250,298.65A48.65,48.65,0,1,1,298.65,250,48.71,48.71,0,0,1,250,298.65ZM332.64,155.4h0a8.46,8.46,0,1,1,0,12A8.4,8.4,0,0,1,332.64,155.4ZM250,116.22a8.46,8.46,0,1,1-8.45,8.45A8.46,8.46,0,0,1,250,116.22Zm-94.6,51.14a8.46,8.46,0,1,1,12,0A8.46,8.46,0,0,1,155.4,167.36Zm-30.73,91.1a8.46,8.46,0,1,1,8.46-8.46A8.47,8.47,0,0,1,124.67,258.46Zm42.69,86.14a8.45,8.45,0,1,1,0-12A8.46,8.46,0,0,1,167.36,344.6ZM250,383.78a8.46,8.46,0,1,1,8.45-8.45A8.46,8.46,0,0,1,250,383.78Zm94.6-51.14h0a8.47,8.47,0,1,1-6-2.47A8.46,8.46,0,0,1,344.6,332.64Zm30.73-74.18a8.46,8.46,0,1,1,8.45-8.46A8.48,8.48,0,0,1,375.33,258.46Z"/></svg>