<?xml version="1.0" encoding="utf-8"?>
<!-- Generator: Adobe Illustrator 22.1.0, SVG Export Plug-In . SVG Version: 6.00 Build 0)  -->
<svg version="1.1" id="Layer_1" xmlns="http://www.w3.org/2000/svg" xmlns:xlink="http://www.w3.org/1999/xlink" x="0px" y="0px"
	 viewBox="0 0 300 300.1" style="enable-background:new 0 0 300 300.1;" xml:space="preserve">
<style type="text/css">
	.st0{fill:#939393;}
</style>
<title>xelacore_iconsfinal</title>
<path class="st0" d="M275.4,125.3c-10.5,0-19.8,6.7-23.3,16.6h-37.8c-1.4-11.5-6-22.4-13.1-31.6L228,83.5c12.3,5.9,27,0.8,32.9-11.5
	c5.9-12.3,0.8-27-11.5-32.9c-12.3-5.9-27-0.8-32.9,11.5c-3.3,6.8-3.3,14.7,0,21.5l-26.8,26.8c-9.2-7.1-20.1-11.7-31.6-13.1V48
	c12.9-4.5,19.7-18.5,15.2-31.4C168.9,3.7,154.8-3.1,142,1.4c-12.9,4.5-19.7,18.5-15.2,31.4c2.5,7.1,8.1,12.7,15.2,15.2v37.7
	c-11.5,1.4-22.4,6-31.6,13.1L83.6,72c6-12.4,0.9-27.3-11.5-33.4s-27.3-0.9-33.4,11.5c-6,12.4-0.9,27.3,11.5,33.4
	c6.9,3.4,15,3.4,21.9,0l26.8,26.8c-7.1,9.2-11.7,20.1-13.1,31.6H48c-4.5-12.9-18.5-19.7-31.4-15.2c-12.9,4.5-19.7,18.5-15.2,31.4
	c4.5,12.9,18.5,19.7,31.4,15.2c7.1-2.5,12.7-8.1,15.2-15.2h37.8c1.4,11.5,6,22.4,13.1,31.6l-26.7,26.7c-12.3-5.9-27-0.8-32.9,11.5
	c-5.9,12.3-0.8,27,11.5,32.9c9.4,4.6,20.7,2.6,28.1-4.8l0,0c7.4-7.4,9.2-18.7,4.7-28.1l26.8-26.8c9.2,7.1,20.1,11.7,31.6,13.1v37.8
	c-12.9,4.5-19.7,18.5-15.2,31.4c4.5,12.9,18.5,19.7,31.4,15.2c12.9-4.5,19.7-18.5,15.2-31.4c-2.5-7.1-8.1-12.7-15.2-15.2v-37.8
	c11.5-1.4,22.4-6,31.6-13.1l26.8,26.8c-5.8,12.2-0.5,26.8,11.7,32.5c12.2,5.8,26.8,0.5,32.5-11.7c5.8-12.2,0.5-26.8-11.7-32.5
	c-6.7-3.2-14.5-3.1-21.1,0.1l-26.7-26.7c7.1-9.2,11.7-20.1,13.1-31.6h37.8c4.5,12.9,18.5,19.6,31.4,15.2
	c12.9-4.5,19.6-18.5,15.2-31.4C295.2,132,285.9,125.3,275.4,125.3L275.4,125.3z M150,198.6c-26.9,0-48.7-21.8-48.7-48.6
	s21.8-48.7,48.6-48.7s48.7,21.8,48.7,48.7v0C198.7,176.8,176.9,198.6,150,198.6z M232.7,55.4L232.7,55.4c3.3-3.3,8.7-3.3,12,0
	c3.3,3.3,3.3,8.7,0,12c-3.3,3.3-8.6,3.3-11.9,0c-3.3-3.2-3.4-8.6-0.1-11.9C232.6,55.5,232.6,55.4,232.7,55.4z M150,16.2
	c4.7,0,8.5,3.8,8.5,8.4c0,4.7-3.8,8.5-8.5,8.5c-4.7,0-8.5-3.8-8.5-8.4c0,0,0,0,0,0C141.6,20,145.4,16.2,150,16.2z M55.4,67.3
	c-3.3-3.3-3.3-8.7,0-12c3.3-3.3,8.7-3.3,12,0c3.3,3.3,3.3,8.6,0,11.9C64.1,70.6,58.8,70.7,55.4,67.3C55.5,67.4,55.4,67.3,55.4,67.3z
	 M24.7,158.4c-4.7,0-8.5-3.8-8.5-8.5c0-4.7,3.8-8.5,8.5-8.5c4.7,0,8.5,3.8,8.5,8.5C33.2,154.6,29.4,158.4,24.7,158.4z M67.4,244.6
	c-3.3,3.3-8.7,3.3-12,0c-3.3-3.3-3.3-8.7,0.1-12c3.3-3.3,8.6-3.3,11.9,0C70.7,235.9,70.7,241.2,67.4,244.6
	C67.4,244.6,67.4,244.6,67.4,244.6L67.4,244.6z M150,283.8c-4.7,0-8.5-3.8-8.5-8.5c0-4.7,3.8-8.5,8.5-8.5c4.7,0,8.5,3.8,8.5,8.5
	c0,0,0,0,0,0C158.5,280,154.7,283.8,150,283.8z M244.6,232.6L244.6,232.6c3.3,3.3,3.3,8.7,0,12s-8.7,3.3-12,0s-3.3-8.7,0-12
	c1.6-1.6,3.7-2.5,6-2.5C240.9,230.1,243,231,244.6,232.6z M275.4,158.4c-4.7,0-8.5-3.8-8.5-8.5c0-4.7,3.8-8.5,8.4-8.5
	c4.7,0,8.5,3.8,8.5,8.4c0,0,0,0,0,0C283.8,154.6,280,158.4,275.4,158.4L275.4,158.4z"/>
</svg>
